<?xml version="1.0" standalone="no"?>
 <!DOCTYPE svg PUBLIC "-//W3C//DTD SVG 1.1//EN" 
 "http://www.w3.org/Graphics/SVG/1.1/DTD/svg11.dtd"> 
<svg xmlns="http://www.w3.org/2000/svg" version="1.1" 
    width="41.9989cm" height="29.7002cm" viewBox="0 0 165350 116930 ">
<title>SVG Picture created as potato-F_SilkS.svg date 2013/09/08 10:29:17 </title>
  <desc>Picture generated by PCBNEW </desc>
<g style="fill:#000000; fill-opacity:1;stroke:#000000; stroke-opacity:1;
stroke-linecap:round; stroke-linejoin:round; "
 transform="translate(0 0) scale(1 1)">
</g>
<g style="fill:#000000; fill-opacity:0.0; 
stroke:#000000; stroke-width:50; stroke-opacity:1; 
stroke-linecap:round; stroke-linejoin:round;">
<path d="M8823 11904
L8976 11904
" />
<path d="M8900 11980
L8900 11828
" />
<path d="M8823 9504
L8976 9504
" />
<path d="M8823 7104
L8976 7104
" />
<path d="M8900 7180
L8900 7028
" />
</g>
<g style="fill:#000000; fill-opacity:0.0; 
stroke:#000000; stroke-width:120; stroke-opacity:1; 
stroke-linecap:round; stroke-linejoin:round;">
<path d="M9400 11750
L8400 11750
" />
<path d="M8400 11750
L8400 9750
" />
<path d="M8400 9750
L9400 9750
" />
<path d="M9400 9750
L9400 11750
" />
<path d="M8400 7250
L9400 7250
" />
<path d="M9400 7250
L9400 9250
" />
<path d="M9400 9250
L8400 9250
" />
<path d="M8400 9250
L8400 7250
" />
</g>
<g style="fill:#000000; fill-opacity:0.0; 
stroke:#000000; stroke-width:50; stroke-opacity:1; 
stroke-linecap:round; stroke-linejoin:round;">
<path d="M10350 7250
L10350 7150
" />
<path d="M10350 7150
L9450 7150
" />
<path d="M9450 7150
L9450 7250
" />
<path d="M10350 7250
L9450 7250
" />
<path d="M9450 7250
L9450 7900
" />
<path d="M10350 8600
L10350 9250
" />
<path d="M10350 9250
L9450 9250
" />
<path d="M9450 9250
L9450 8600
" />
<path d="M10350 7900
L10350 7250
" />
<path d="M9450 11750
L9450 11850
" />
<path d="M9450 11850
L10350 11850
" />
<path d="M10350 11850
L10350 11750
" />
<path d="M9450 11750
L10350 11750
" />
<path d="M10350 11750
L10350 11100
" />
<path d="M9450 10400
L9450 9750
" />
<path d="M9450 9750
L10350 9750
" />
<path d="M10350 9750
L10350 10400
" />
<path d="M9450 11100
L9450 11750
" />
<path d="M12350 9750
L11450 9750
" />
<path d="M11450 9750
L11450 10400
" />
<path d="M12350 11100
L12350 11750
" />
<path d="M12350 11750
L11450 11750
" />
<path d="M11450 11750
L11450 11100
" />
<path d="M12350 10400
L12350 9750
" />
<path d="M10450 9250
L11350 9250
" />
<path d="M11350 9250
L11350 8600
" />
<path d="M10450 7900
L10450 7250
" />
<path d="M10450 7250
L11350 7250
" />
<path d="M11350 7250
L11350 7900
" />
<path d="M10450 8600
L10450 9250
" />
</g>
<g style="fill:#000000; fill-opacity:0.0; 
stroke:#000000; stroke-width:120; stroke-opacity:1; 
stroke-linecap:round; stroke-linejoin:round;">
<path d="M12400 9250
L11400 9250
" />
<path d="M11400 9250
L11400 7250
" />
<path d="M11400 7250
L12400 7250
" />
<path d="M12400 7250
L12400 9250
" />
<path d="M11400 11750
L10400 11750
" />
<path d="M10400 11750
L10400 9750
" />
<path d="M10400 9750
L11400 9750
" />
<path d="M11400 9750
L11400 11750
" />
</g>
<g style="fill:#000000; fill-opacity:0.0; 
stroke:#000000; stroke-width:50; stroke-opacity:1; 
stroke-linecap:round; stroke-linejoin:round;">
<path d="M8609 10830
L8609 10630
L8685 10630
L8704 10640
L8714 10650
L8723 10669
L8723 10697
L8714 10716
L8704 10726
L8685 10735
L8609 10735
" />
<path d="M8838 10830
L8819 10821
L8809 10811
L8800 10792
L8800 10735
L8809 10716
L8819 10707
L8838 10697
L8866 10697
L8885 10707
L8895 10716
L8904 10735
L8904 10792
L8895 10811
L8885 10821
L8866 10830
L8838 10830
" />
<path d="M9076 10697
L9076 10830
" />
<path d="M8990 10697
L8990 10802
L9000 10821
L9019 10830
L9047 10830
L9066 10821
L9076 10811
" />
<path d="M9142 10697
L9219 10697
" />
<path d="M9171 10630
L9171 10802
L9180 10821
L9200 10830
L9219 10830
" />
<path d="M8709 8330
L8709 8130
L8785 8130
L8804 8140
L8814 8150
L8823 8169
L8823 8197
L8814 8216
L8804 8226
L8785 8235
L8709 8235
" />
<path d="M8909 8330
L8909 8197
" />
<path d="M8909 8130
L8900 8140
L8909 8150
L8919 8140
L8909 8130
L8909 8150
" />
<path d="M9004 8197
L9004 8330
" />
<path d="M9004 8216
L9014 8207
L9033 8197
L9061 8197
L9080 8207
L9090 8226
L9090 8330
" />
</g>
<g style="fill:#000000; fill-opacity:0.0; 
stroke:#000000; stroke-width:59.0551; stroke-opacity:1; 
stroke-linecap:round; stroke-linejoin:round;">
<path d="M13465 10843
L13465 10768
L13484 10731
L13521 10693
L13596 10674
L13728 10674
L13803 10693
L13840 10731
L13859 10768
L13859 10843
L13840 10881
L13803 10918
L13728 10937
L13596 10937
L13521 10918
L13484 10881
L13465 10843
" />
<path d="M13859 10506
L13465 10506
" />
<path d="M13859 10281
L13634 10449
" />
<path d="M13465 10281
L13690 10506
" />
<path d="M13859 9887
L13671 10018
" />
<path d="M13859 10112
L13465 10112
L13465 9962
L13484 9924
L13503 9906
L13540 9887
L13596 9887
L13634 9906
L13653 9924
L13671 9962
L13671 10112
" />
<path d="M13709 9718
L13709 9418
" />
<path d="M13465 9287
L13465 9062
" />
<path d="M13859 9175
L13465 9175
" />
<path d="M13465 8762
L13465 8837
L13484 8875
L13503 8893
L13559 8931
L13634 8950
L13784 8950
L13821 8931
L13840 8912
L13859 8875
L13859 8800
L13840 8762
L13821 8743
L13784 8725
L13690 8725
L13653 8743
L13634 8762
L13615 8800
L13615 8875
L13634 8912
L13653 8931
L13690 8950
" />
<path d="M13446 8275
L13953 8612
" />
<path d="M13859 7937
L13859 8162
" />
<path d="M13859 8050
L13465 8050
L13521 8087
L13559 8125
L13578 8162
" />
<path d="M13465 7693
L13465 7656
L13484 7618
L13503 7600
L13540 7581
L13615 7562
L13709 7562
L13784 7581
L13821 7600
L13840 7618
L13859 7656
L13859 7693
L13840 7731
L13821 7750
L13784 7768
L13709 7787
L13615 7787
L13540 7768
L13503 7750
L13484 7731
L13465 7693
" />
</g>
<g style="fill:#000000; fill-opacity:0.0; 
stroke:#000000; stroke-width:50; stroke-opacity:1; 
stroke-linecap:round; stroke-linejoin:round;">
<path d="M9992 8300
L10007 8314
L10021 8357
L10021 8385
L10007 8428
L9978 8457
L9950 8471
L9892 8485
L9850 8485
L9792 8471
L9764 8457
L9735 8428
L9721 8385
L9721 8357
L9735 8314
L9750 8300
" />
<path d="M10021 8014
L10021 8185
" />
<path d="M10021 8100
L9721 8100
L9764 8128
L9792 8157
L9807 8185
" />
<path d="M9992 10800
L10007 10814
L10021 10857
L10021 10885
L10007 10928
L9978 10957
L9950 10971
L9892 10985
L9850 10985
L9792 10971
L9764 10957
L9735 10928
L9721 10885
L9721 10857
L9735 10814
L9750 10800
" />
<path d="M9750 10685
L9735 10671
L9721 10642
L9721 10571
L9735 10542
L9750 10528
L9778 10514
L9807 10514
L9850 10528
L10021 10700
L10021 10514
" />
<path d="M12021 10800
L11878 10900
" />
<path d="M12021 10971
L11721 10971
L11721 10857
L11735 10828
L11750 10814
L11778 10800
L11821 10800
L11850 10814
L11864 10828
L11878 10857
L11878 10971
" />
<path d="M11750 10685
L11735 10671
L11721 10642
L11721 10571
L11735 10542
L11750 10528
L11778 10514
L11807 10514
L11850 10528
L12021 10700
L12021 10514
" />
<path d="M11021 8300
L10878 8400
" />
<path d="M11021 8471
L10721 8471
L10721 8357
L10735 8328
L10750 8314
L10778 8300
L10821 8300
L10850 8314
L10864 8328
L10878 8357
L10878 8471
" />
<path d="M11021 8014
L11021 8185
" />
<path d="M11021 8100
L10721 8100
L10764 8128
L10792 8157
L10807 8185
" />
<path d="M11633 8321
L11661 8330
L11709 8330
L11728 8321
L11738 8311
L11747 8292
L11747 8273
L11738 8254
L11728 8245
L11709 8235
L11671 8226
L11652 8216
L11642 8207
L11633 8188
L11633 8169
L11642 8150
L11652 8140
L11671 8130
L11719 8130
L11747 8140
" />
<path d="M11814 8130
L11861 8330
L11900 8188
L11938 8330
L11985 8130
" />
<path d="M12166 8330
L12052 8330
" />
<path d="M12109 8330
L12109 8130
L12090 8159
L12071 8178
L12052 8188
" />
<path d="M10700 10835
L10700 10625
L10776 10625
L10795 10635
L10804 10645
L10814 10665
L10814 10695
L10804 10715
L10795 10725
L10776 10735
L10700 10735
" />
<path d="M10928 10835
L10909 10825
L10900 10815
L10890 10795
L10890 10735
L10900 10715
L10909 10705
L10928 10695
L10957 10695
L10976 10705
L10985 10715
L10995 10735
L10995 10795
L10985 10815
L10976 10825
L10957 10835
L10928 10835
" />
<path d="M11052 10695
L11128 10695
" />
<path d="M11080 10625
L11080 10805
L11090 10825
L11109 10835
L11128 10835
" />
</g> 
</svg>
