<?xml version="1.0" standalone="no"?>
 <!DOCTYPE svg PUBLIC "-//W3C//DTD SVG 1.1//EN" 
 "http://www.w3.org/Graphics/SVG/1.1/DTD/svg11.dtd"> 
<svg xmlns="http://www.w3.org/2000/svg" version="1.1" 
    width="41.9989cm" height="29.7002cm" viewBox="0 0 165350 116930 ">
<title>SVG Picture created as potato-F_Cu.svg date 2013/09/08 10:29:17 </title>
  <desc>Picture generated by PCBNEW </desc>
<g style="fill:#000000; fill-opacity:1;stroke:#000000; stroke-opacity:1;
stroke-linecap:round; stroke-linejoin:round; "
 transform="translate(0 0) scale(1 1)">
</g>
<g style="fill:#000000; fill-opacity:0.0; 
stroke:#000000; stroke-width:59.0551; stroke-opacity:1; 
stroke-linecap:round; stroke-linejoin:round;">
</g>
<g style="fill:#000000; fill-opacity:1.0; 
stroke:#000000; stroke-width:59.0551; stroke-opacity:1; 
stroke-linecap:round; stroke-linejoin:round;">
<polyline style="fill-rule:evenodd;"
points="9145,11495
8654,11495
8654,11004
9145,11004
9145,11495
" /> 
<circle cx="8900" cy="10250" r="245.472" /> 
<polyline style="fill-rule:evenodd;"
points="8654,7504
9145,7504
9145,7995
8654,7995
8654,7504
" /> 
<circle cx="8900" cy="8750" r="245.472" /> 
<circle cx="14500" cy="10590" r="265.748" /> 
<circle cx="14500" cy="9920" r="265.748" /> 
<circle cx="14500" cy="9250" r="265.748" /> 
<circle cx="14500" cy="8580" r="265.748" /> 
<circle cx="14500" cy="7910" r="265.748" /> 
<polyline style="fill-rule:evenodd;"
points="9529,7329
10270,7329
10270,7870
9529,7870
9529,7329
" /> 
<polyline style="fill-rule:evenodd;"
points="9529,8629
10270,8629
10270,9170
9529,9170
9529,8629
" /> 
<polyline style="fill-rule:evenodd;"
points="10270,11670
9529,11670
9529,11129
10270,11129
10270,11670
" /> 
<polyline style="fill-rule:evenodd;"
points="10270,10370
9529,10370
9529,9829
10270,9829
10270,10370
" /> 
<polyline style="fill-rule:evenodd;"
points="11529,9829
12270,9829
12270,10370
11529,10370
11529,9829
" /> 
<polyline style="fill-rule:evenodd;"
points="11529,11129
12270,11129
12270,11670
11529,11670
11529,11129
" /> 
<polyline style="fill-rule:evenodd;"
points="11270,9170
10529,9170
10529,8629
11270,8629
11270,9170
" /> 
<polyline style="fill-rule:evenodd;"
points="11270,7870
10529,7870
10529,7329
11270,7329
11270,7870
" /> 
<polyline style="fill-rule:evenodd;"
points="12145,8995
11654,8995
11654,8504
12145,8504
12145,8995
" /> 
<circle cx="11900" cy="7750" r="245.472" /> 
<polyline style="fill-rule:evenodd;"
points="11145,11495
10654,11495
10654,11004
11145,11004
11145,11495
" /> 
<circle cx="10900" cy="10250" r="245.472" /> 
</g>
<g style="fill:#000000; fill-opacity:1.0; 
stroke:#000000; stroke-width:250; stroke-opacity:1; 
stroke-linecap:round; stroke-linejoin:round;">
<path d="M14500 7910
L12060 7910
" />
<path d="M11750 7600
L10900 7600
" />
<path d="M12060 7910
L11750 7600
" />
<path d="M11900 10100
L14010 10100
" />
<path d="M14010 10100
L14500 10590
" />
<path d="M11900 11400
L11050 11400
" />
<path d="M11050 11400
L10900 11250
" />
<path d="M8900 7750
L9750 7750
" />
<path d="M11730 8580
L14500 8580
" />
<path d="M11400 8250
L11730 8580
" />
<path d="M10250 8250
L11400 8250
" />
<path d="M9750 7750
L10250 8250
" />
<path d="M14500 9920
L14670 9920
" />
<path d="M10050 11250
L8900 11250
" />
<path d="M10550 10750
L10050 11250
" />
<path d="M13750 10750
L10550 10750
" />
<path d="M14250 11250
L13750 10750
" />
<path d="M14750 11250
L14250 11250
" />
<path d="M15000 11000
L14750 11250
" />
<path d="M15000 10250
L15000 11000
" />
<path d="M14670 9920
L15000 10250
" />
</g>
<g style="fill:#000000; fill-opacity:1.0; 
stroke:#000000; stroke-width:59.0551; stroke-opacity:1; 
stroke-linecap:round; stroke-linejoin:round;">
<polyline style="fill-rule:evenodd;"
points="15080,9941
15004,9865
15004,9219
14977,9085
14908,9050
14708,9250
14908,9449
14977,9414
15004,9219
15004,9865
14927,9788
14877,9668
14752,9542
14588,9474
14515,9474
14500,9458
14484,9474
14411,9474
14291,9524
14291,9250
14091,9050
14022,9085
13995,9280
14022,9414
14091,9449
14291,9250
14291,9524
14248,9542
14122,9667
14054,9831
14054,9833
14010,9825
12450,9825
12450,9770
12427,9715
12385,9672
12329,9650
12270,9649
11470,9649
11415,9672
11372,9714
11350,9770
11349,9829
11349,10085
11288,10055
11094,10250
11108,10264
11094,10279
11094,9861
11061,9793
10874,9766
10750,9791
10750,9350
10750,9050
10450,9050
10350,9050
10050,9050
10050,9350
10100,9400
10260,9400
10339,9399
10400,9375
10460,9399
10539,9400
10700,9400
10750,9350
10750,9791
10738,9793
10705,9861
10900,10055
11094,9861
11094,10279
10914,10458
10900,10444
10885,10458
10691,10264
10705,10250
10511,10055
10500,10061
10500,10061
10500,9949
10450,9949
10500,9900
10500,9760
10469,9686
10413,9630
10339,9600
10260,9599
10100,9600
10050,9650
10050,9950
10057,9950
10057,10250
10050,10250
10050,10550
10100,10600
10260,10600
10311,10599
9961,10949
9750,10949
9750,10550
9750,10250
9742,10250
9742,9950
9750,9950
9750,9650
9750,9350
9750,9050
9742,9050
9742,8750
9750,8750
9750,8450
9700,8400
9539,8399
9460,8400
9386,8430
9330,8486
9299,8560
9299,8561
9288,8555
9094,8750
9288,8944
9300,8938
9300,9050
9349,9050
9300,9100
9299,9239
9330,9313
9386,9369
9460,9399
9539,9400
9700,9400
9750,9350
9750,9650
9700,9600
9539,9599
9460,9600
9386,9630
9330,9686
9299,9760
9300,9900
9349,9949
9300,9949
9300,10061
9288,10055
9094,10250
9288,10444
9299,10438
9299,10439
9330,10513
9386,10569
9460,10599
9539,10600
9700,10600
9750,10550
9750,10949
9470,10949
9415,10972
9412,10975
9325,10975
9325,10945
9302,10890
9260,10847
9204,10825
9145,10824
9094,10824
9094,10638
9094,9861
9094,9138
9094,8361
9061,8293
8874,8266
8738,8293
8705,8361
8900,8555
9094,8361
9094,9138
8900,8944
8705,9138
8738,9206
8925,9233
9061,9206
9094,9138
9094,9861
9061,9793
8874,9766
8738,9793
8705,9861
8900,10055
9094,9861
9094,10638
8900,10444
8705,10638
8738,10706
8925,10733
9061,10706
9094,10638
9094,10824
8595,10824
8540,10847
8497,10889
8475,10945
8474,11004
8474,11554
8497,11609
8539,11652
8595,11674
8654,11675
9204,11675
9259,11652
9302,11610
9324,11554
9325,11525
9349,11525
9349,11729
9372,11784
9414,11827
9422,11830
8419,11830
8419,10292
8443,10411
8511,10444
8705,10250
8511,10055
8443,10088
8419,10252
8419,8792
8443,8911
8511,8944
8705,8750
8511,8555
8443,8588
8419,8752
8419,7169
9422,7169
9415,7172
9372,7214
9350,7270
9349,7329
9349,7475
9325,7475
9325,7445
9302,7390
9260,7347
9204,7325
9145,7324
8595,7324
8540,7347
8497,7389
8475,7445
8474,7504
8474,8054
8497,8109
8539,8152
8595,8174
8654,8175
9204,8175
9259,8152
9302,8110
9324,8054
9325,8025
9412,8025
9414,8027
9470,8049
9529,8050
9661,8050
10055,8444
10050,8450
10050,8750
10350,8750
10450,8750
10750,8750
10750,8742
11050,8742
11050,8750
11057,8750
11057,9050
11050,9050
11050,9350
11100,9400
11260,9400
11339,9399
11413,9369
11469,9313
11500,9239
11500,9112
11539,9152
11595,9174
11654,9175
12204,9175
12259,9152
12302,9110
12324,9054
12325,8995
12325,8855
14145,8855
14247,8957
14411,9025
14484,9025
14500,9041
14515,9025
14588,9025
14751,8957
14877,8832
14945,8668
14945,8491
14877,8328
14794,8244
14877,8162
14945,7998
14945,7821
14877,7658
14752,7532
14588,7464
14411,7464
14248,7532
14145,7635
12312,7635
12260,7509
12141,7389
11984,7325
11815,7324
11794,7333
11750,7325
11450,7325
11450,7270
11427,7215
11385,7172
11377,7169
15080,7169
15080,9941
" /> 
</g>
<g style="fill:#000000; fill-opacity:0.0; 
stroke:#000000; stroke-width:100; stroke-opacity:1; 
stroke-linecap:round; stroke-linejoin:round;">
<polyline fill="none;"
points="15080,9941
15004,9865
15004,9219
14977,9085
14908,9050
14708,9250
14908,9449
14977,9414
15004,9219
15004,9865
14927,9788
14877,9668
14752,9542
14588,9474
14515,9474
14500,9458
14484,9474
14411,9474
14291,9524
14291,9250
14091,9050
14022,9085
13995,9280
14022,9414
14091,9449
14291,9250
14291,9524
14248,9542
14122,9667
14054,9831
14054,9833
14010,9825
12450,9825
12450,9770
12427,9715
12385,9672
12329,9650
12270,9649
11470,9649
11415,9672
11372,9714
11350,9770
11349,9829
11349,10085
11288,10055
11094,10250
11108,10264
11094,10279
11094,9861
11061,9793
10874,9766
10750,9791
10750,9350
10750,9050
10450,9050
10350,9050
10050,9050
10050,9350
10100,9400
10260,9400
10339,9399
10400,9375
10460,9399
10539,9400
10700,9400
10750,9350
10750,9791
10738,9793
10705,9861
10900,10055
11094,9861
11094,10279
10914,10458
10900,10444
10885,10458
10691,10264
10705,10250
10511,10055
10500,10061
10500,10061
10500,9949
10450,9949
10500,9900
10500,9760
10469,9686
10413,9630
10339,9600
10260,9599
10100,9600
10050,9650
10050,9950
10057,9950
10057,10250
10050,10250
10050,10550
10100,10600
10260,10600
10311,10599
9961,10949
9750,10949
9750,10550
9750,10250
9742,10250
9742,9950
9750,9950
9750,9650
9750,9350
9750,9050
9742,9050
9742,8750
9750,8750
9750,8450
9700,8400
9539,8399
9460,8400
9386,8430
9330,8486
9299,8560
9299,8561
9288,8555
9094,8750
9288,8944
9300,8938
9300,9050
9349,9050
9300,9100
9299,9239
9330,9313
9386,9369
9460,9399
9539,9400
9700,9400
9750,9350
9750,9650
9700,9600
9539,9599
9460,9600
9386,9630
9330,9686
9299,9760
9300,9900
9349,9949
9300,9949
9300,10061
9288,10055
9094,10250
9288,10444
9299,10438
9299,10439
9330,10513
9386,10569
9460,10599
9539,10600
9700,10600
9750,10550
9750,10949
9470,10949
9415,10972
9412,10975
9325,10975
9325,10945
9302,10890
9260,10847
9204,10825
9145,10824
9094,10824
9094,10638
9094,9861
9094,9138
9094,8361
9061,8293
8874,8266
8738,8293
8705,8361
8900,8555
9094,8361
9094,9138
8900,8944
8705,9138
8738,9206
8925,9233
9061,9206
9094,9138
9094,9861
9061,9793
8874,9766
8738,9793
8705,9861
8900,10055
9094,9861
9094,10638
8900,10444
8705,10638
8738,10706
8925,10733
9061,10706
9094,10638
9094,10824
8595,10824
8540,10847
8497,10889
8475,10945
8474,11004
8474,11554
8497,11609
8539,11652
8595,11674
8654,11675
9204,11675
9259,11652
9302,11610
9324,11554
9325,11525
9349,11525
9349,11729
9372,11784
9414,11827
9422,11830
8419,11830
8419,10292
8443,10411
8511,10444
8705,10250
8511,10055
8443,10088
8419,10252
8419,8792
8443,8911
8511,8944
8705,8750
8511,8555
8443,8588
8419,8752
8419,7169
9422,7169
9415,7172
9372,7214
9350,7270
9349,7329
9349,7475
9325,7475
9325,7445
9302,7390
9260,7347
9204,7325
9145,7324
8595,7324
8540,7347
8497,7389
8475,7445
8474,7504
8474,8054
8497,8109
8539,8152
8595,8174
8654,8175
9204,8175
9259,8152
9302,8110
9324,8054
9325,8025
9412,8025
9414,8027
9470,8049
9529,8050
9661,8050
10055,8444
10050,8450
10050,8750
10350,8750
10450,8750
10750,8750
10750,8742
11050,8742
11050,8750
11057,8750
11057,9050
11050,9050
11050,9350
11100,9400
11260,9400
11339,9399
11413,9369
11469,9313
11500,9239
11500,9112
11539,9152
11595,9174
11654,9175
12204,9175
12259,9152
12302,9110
12324,9054
12325,8995
12325,8855
14145,8855
14247,8957
14411,9025
14484,9025
14500,9041
14515,9025
14588,9025
14751,8957
14877,8832
14945,8668
14945,8491
14877,8328
14794,8244
14877,8162
14945,7998
14945,7821
14877,7658
14752,7532
14588,7464
14411,7464
14248,7532
14145,7635
12312,7635
12260,7509
12141,7389
11984,7325
11815,7324
11794,7333
11750,7325
11450,7325
11450,7270
11427,7215
11385,7172
11377,7169
15080,7169
15080,9941
" /> 
</g> 
</svg>
