G04 (created by PCBNEW (2013-may-18)-stable) date Sun 08 Sep 2013 10:28:34 AM CDT*
%MOIN*%
G04 Gerber Fmt 3.4, Leading zero omitted, Abs format*
%FSLAX34Y34*%
G01*
G70*
G90*
G04 APERTURE LIST*
%ADD10C,0.00590551*%
%ADD11C,0.005*%
%ADD12C,0.012*%
G04 APERTURE END LIST*
G54D10*
G54D11*
X8823Y-11904D02*
X8976Y-11904D01*
X8900Y-11980D02*
X8900Y-11828D01*
X8823Y-9504D02*
X8976Y-9504D01*
X8823Y-7104D02*
X8976Y-7104D01*
X8900Y-7180D02*
X8900Y-7028D01*
G54D12*
X9400Y-11750D02*
X8400Y-11750D01*
X8400Y-11750D02*
X8400Y-9750D01*
X8400Y-9750D02*
X9400Y-9750D01*
X9400Y-9750D02*
X9400Y-11750D01*
X8400Y-7250D02*
X9400Y-7250D01*
X9400Y-7250D02*
X9400Y-9250D01*
X9400Y-9250D02*
X8400Y-9250D01*
X8400Y-9250D02*
X8400Y-7250D01*
G54D11*
X10350Y-7250D02*
X10350Y-7150D01*
X10350Y-7150D02*
X9450Y-7150D01*
X9450Y-7150D02*
X9450Y-7250D01*
X10350Y-7250D02*
X9450Y-7250D01*
X9450Y-7250D02*
X9450Y-7900D01*
X10350Y-8600D02*
X10350Y-9250D01*
X10350Y-9250D02*
X9450Y-9250D01*
X9450Y-9250D02*
X9450Y-8600D01*
X10350Y-7900D02*
X10350Y-7250D01*
X9450Y-11750D02*
X9450Y-11850D01*
X9450Y-11850D02*
X10350Y-11850D01*
X10350Y-11850D02*
X10350Y-11750D01*
X9450Y-11750D02*
X10350Y-11750D01*
X10350Y-11750D02*
X10350Y-11100D01*
X9450Y-10400D02*
X9450Y-9750D01*
X9450Y-9750D02*
X10350Y-9750D01*
X10350Y-9750D02*
X10350Y-10400D01*
X9450Y-11100D02*
X9450Y-11750D01*
X12350Y-9750D02*
X11450Y-9750D01*
X11450Y-9750D02*
X11450Y-10400D01*
X12350Y-11100D02*
X12350Y-11750D01*
X12350Y-11750D02*
X11450Y-11750D01*
X11450Y-11750D02*
X11450Y-11100D01*
X12350Y-10400D02*
X12350Y-9750D01*
X10450Y-9250D02*
X11350Y-9250D01*
X11350Y-9250D02*
X11350Y-8600D01*
X10450Y-7900D02*
X10450Y-7250D01*
X10450Y-7250D02*
X11350Y-7250D01*
X11350Y-7250D02*
X11350Y-7900D01*
X10450Y-8600D02*
X10450Y-9250D01*
G54D12*
X12400Y-9250D02*
X11400Y-9250D01*
X11400Y-9250D02*
X11400Y-7250D01*
X11400Y-7250D02*
X12400Y-7250D01*
X12400Y-7250D02*
X12400Y-9250D01*
X11400Y-11750D02*
X10400Y-11750D01*
X10400Y-11750D02*
X10400Y-9750D01*
X10400Y-9750D02*
X11400Y-9750D01*
X11400Y-9750D02*
X11400Y-11750D01*
G54D11*
X8609Y-10830D02*
X8609Y-10630D01*
X8685Y-10630D01*
X8704Y-10640D01*
X8714Y-10650D01*
X8723Y-10669D01*
X8723Y-10697D01*
X8714Y-10716D01*
X8704Y-10726D01*
X8685Y-10735D01*
X8609Y-10735D01*
X8838Y-10830D02*
X8819Y-10821D01*
X8809Y-10811D01*
X8800Y-10792D01*
X8800Y-10735D01*
X8809Y-10716D01*
X8819Y-10707D01*
X8838Y-10697D01*
X8866Y-10697D01*
X8885Y-10707D01*
X8895Y-10716D01*
X8904Y-10735D01*
X8904Y-10792D01*
X8895Y-10811D01*
X8885Y-10821D01*
X8866Y-10830D01*
X8838Y-10830D01*
X9076Y-10697D02*
X9076Y-10830D01*
X8990Y-10697D02*
X8990Y-10802D01*
X9000Y-10821D01*
X9019Y-10830D01*
X9047Y-10830D01*
X9066Y-10821D01*
X9076Y-10811D01*
X9142Y-10697D02*
X9219Y-10697D01*
X9171Y-10630D02*
X9171Y-10802D01*
X9180Y-10821D01*
X9200Y-10830D01*
X9219Y-10830D01*
X8709Y-8330D02*
X8709Y-8130D01*
X8785Y-8130D01*
X8804Y-8140D01*
X8814Y-8150D01*
X8823Y-8169D01*
X8823Y-8197D01*
X8814Y-8216D01*
X8804Y-8226D01*
X8785Y-8235D01*
X8709Y-8235D01*
X8909Y-8330D02*
X8909Y-8197D01*
X8909Y-8130D02*
X8900Y-8140D01*
X8909Y-8150D01*
X8919Y-8140D01*
X8909Y-8130D01*
X8909Y-8150D01*
X9004Y-8197D02*
X9004Y-8330D01*
X9004Y-8216D02*
X9014Y-8207D01*
X9033Y-8197D01*
X9061Y-8197D01*
X9080Y-8207D01*
X9090Y-8226D01*
X9090Y-8330D01*
G54D10*
X13465Y-10843D02*
X13465Y-10768D01*
X13484Y-10731D01*
X13521Y-10693D01*
X13596Y-10674D01*
X13728Y-10674D01*
X13803Y-10693D01*
X13840Y-10731D01*
X13859Y-10768D01*
X13859Y-10843D01*
X13840Y-10881D01*
X13803Y-10918D01*
X13728Y-10937D01*
X13596Y-10937D01*
X13521Y-10918D01*
X13484Y-10881D01*
X13465Y-10843D01*
X13859Y-10506D02*
X13465Y-10506D01*
X13859Y-10281D02*
X13634Y-10449D01*
X13465Y-10281D02*
X13690Y-10506D01*
X13859Y-9887D02*
X13671Y-10018D01*
X13859Y-10112D02*
X13465Y-10112D01*
X13465Y-9962D01*
X13484Y-9924D01*
X13503Y-9906D01*
X13540Y-9887D01*
X13596Y-9887D01*
X13634Y-9906D01*
X13653Y-9924D01*
X13671Y-9962D01*
X13671Y-10112D01*
X13709Y-9718D02*
X13709Y-9418D01*
X13465Y-9287D02*
X13465Y-9062D01*
X13859Y-9175D02*
X13465Y-9175D01*
X13465Y-8762D02*
X13465Y-8837D01*
X13484Y-8875D01*
X13503Y-8893D01*
X13559Y-8931D01*
X13634Y-8950D01*
X13784Y-8950D01*
X13821Y-8931D01*
X13840Y-8912D01*
X13859Y-8875D01*
X13859Y-8800D01*
X13840Y-8762D01*
X13821Y-8743D01*
X13784Y-8725D01*
X13690Y-8725D01*
X13653Y-8743D01*
X13634Y-8762D01*
X13615Y-8800D01*
X13615Y-8875D01*
X13634Y-8912D01*
X13653Y-8931D01*
X13690Y-8950D01*
X13446Y-8275D02*
X13953Y-8612D01*
X13859Y-7937D02*
X13859Y-8162D01*
X13859Y-8050D02*
X13465Y-8050D01*
X13521Y-8087D01*
X13559Y-8125D01*
X13578Y-8162D01*
X13465Y-7693D02*
X13465Y-7656D01*
X13484Y-7618D01*
X13503Y-7600D01*
X13540Y-7581D01*
X13615Y-7562D01*
X13709Y-7562D01*
X13784Y-7581D01*
X13821Y-7600D01*
X13840Y-7618D01*
X13859Y-7656D01*
X13859Y-7693D01*
X13840Y-7731D01*
X13821Y-7750D01*
X13784Y-7768D01*
X13709Y-7787D01*
X13615Y-7787D01*
X13540Y-7768D01*
X13503Y-7750D01*
X13484Y-7731D01*
X13465Y-7693D01*
G54D11*
X9992Y-8300D02*
X10007Y-8314D01*
X10021Y-8357D01*
X10021Y-8385D01*
X10007Y-8428D01*
X9978Y-8457D01*
X9950Y-8471D01*
X9892Y-8485D01*
X9850Y-8485D01*
X9792Y-8471D01*
X9764Y-8457D01*
X9735Y-8428D01*
X9721Y-8385D01*
X9721Y-8357D01*
X9735Y-8314D01*
X9750Y-8300D01*
X10021Y-8014D02*
X10021Y-8185D01*
X10021Y-8100D02*
X9721Y-8100D01*
X9764Y-8128D01*
X9792Y-8157D01*
X9807Y-8185D01*
X9992Y-10800D02*
X10007Y-10814D01*
X10021Y-10857D01*
X10021Y-10885D01*
X10007Y-10928D01*
X9978Y-10957D01*
X9950Y-10971D01*
X9892Y-10985D01*
X9850Y-10985D01*
X9792Y-10971D01*
X9764Y-10957D01*
X9735Y-10928D01*
X9721Y-10885D01*
X9721Y-10857D01*
X9735Y-10814D01*
X9750Y-10800D01*
X9750Y-10685D02*
X9735Y-10671D01*
X9721Y-10642D01*
X9721Y-10571D01*
X9735Y-10542D01*
X9750Y-10528D01*
X9778Y-10514D01*
X9807Y-10514D01*
X9850Y-10528D01*
X10021Y-10700D01*
X10021Y-10514D01*
X12021Y-10800D02*
X11878Y-10900D01*
X12021Y-10971D02*
X11721Y-10971D01*
X11721Y-10857D01*
X11735Y-10828D01*
X11750Y-10814D01*
X11778Y-10800D01*
X11821Y-10800D01*
X11850Y-10814D01*
X11864Y-10828D01*
X11878Y-10857D01*
X11878Y-10971D01*
X11750Y-10685D02*
X11735Y-10671D01*
X11721Y-10642D01*
X11721Y-10571D01*
X11735Y-10542D01*
X11750Y-10528D01*
X11778Y-10514D01*
X11807Y-10514D01*
X11850Y-10528D01*
X12021Y-10700D01*
X12021Y-10514D01*
X11021Y-8300D02*
X10878Y-8400D01*
X11021Y-8471D02*
X10721Y-8471D01*
X10721Y-8357D01*
X10735Y-8328D01*
X10750Y-8314D01*
X10778Y-8300D01*
X10821Y-8300D01*
X10850Y-8314D01*
X10864Y-8328D01*
X10878Y-8357D01*
X10878Y-8471D01*
X11021Y-8014D02*
X11021Y-8185D01*
X11021Y-8100D02*
X10721Y-8100D01*
X10764Y-8128D01*
X10792Y-8157D01*
X10807Y-8185D01*
X11633Y-8321D02*
X11661Y-8330D01*
X11709Y-8330D01*
X11728Y-8321D01*
X11738Y-8311D01*
X11747Y-8292D01*
X11747Y-8273D01*
X11738Y-8254D01*
X11728Y-8245D01*
X11709Y-8235D01*
X11671Y-8226D01*
X11652Y-8216D01*
X11642Y-8207D01*
X11633Y-8188D01*
X11633Y-8169D01*
X11642Y-8150D01*
X11652Y-8140D01*
X11671Y-8130D01*
X11719Y-8130D01*
X11747Y-8140D01*
X11814Y-8130D02*
X11861Y-8330D01*
X11900Y-8188D01*
X11938Y-8330D01*
X11985Y-8130D01*
X12166Y-8330D02*
X12052Y-8330D01*
X12109Y-8330D02*
X12109Y-8130D01*
X12090Y-8159D01*
X12071Y-8178D01*
X12052Y-8188D01*
X10700Y-10835D02*
X10700Y-10625D01*
X10776Y-10625D01*
X10795Y-10635D01*
X10804Y-10645D01*
X10814Y-10665D01*
X10814Y-10695D01*
X10804Y-10715D01*
X10795Y-10725D01*
X10776Y-10735D01*
X10700Y-10735D01*
X10928Y-10835D02*
X10909Y-10825D01*
X10900Y-10815D01*
X10890Y-10795D01*
X10890Y-10735D01*
X10900Y-10715D01*
X10909Y-10705D01*
X10928Y-10695D01*
X10957Y-10695D01*
X10976Y-10705D01*
X10985Y-10715D01*
X10995Y-10735D01*
X10995Y-10795D01*
X10985Y-10815D01*
X10976Y-10825D01*
X10957Y-10835D01*
X10928Y-10835D01*
X11052Y-10695D02*
X11128Y-10695D01*
X11080Y-10625D02*
X11080Y-10805D01*
X11090Y-10825D01*
X11109Y-10835D01*
X11128Y-10835D01*
M02*
