G04 (created by PCBNEW (2013-may-18)-stable) date Tue 01 Oct 2013 11:13:52 PM CDT*
%MOIN*%
G04 Gerber Fmt 3.4, Leading zero omitted, Abs format*
%FSLAX34Y34*%
G01*
G70*
G90*
G04 APERTURE LIST*
%ADD10C,0.006*%
%ADD11R,0.055X0.055*%
%ADD12C,0.055*%
%ADD13C,0.0590551*%
%ADD14R,0.08X0.06*%
%ADD15C,0.025*%
%ADD16C,0.01*%
G04 APERTURE END LIST*
G54D10*
G54D11*
X8900Y-11250D03*
G54D12*
X8900Y-10250D03*
G54D11*
X8900Y-7750D03*
G54D12*
X8900Y-8750D03*
G54D13*
X14500Y-10590D03*
X14500Y-9920D03*
X14500Y-9250D03*
X14500Y-8580D03*
X14500Y-7910D03*
G54D14*
X9900Y-7600D03*
X9900Y-8900D03*
X9900Y-11400D03*
X9900Y-10100D03*
X11900Y-10100D03*
X11900Y-11400D03*
X10900Y-8900D03*
X10900Y-7600D03*
G54D11*
X11900Y-8750D03*
G54D12*
X11900Y-7750D03*
G54D11*
X10900Y-11250D03*
G54D12*
X10900Y-10250D03*
G54D15*
X14500Y-7910D02*
X12060Y-7910D01*
X11750Y-7600D02*
X10900Y-7600D01*
X12060Y-7910D02*
X11750Y-7600D01*
X11900Y-10100D02*
X14010Y-10100D01*
X14010Y-10100D02*
X14500Y-10590D01*
X11900Y-11400D02*
X11050Y-11400D01*
X11050Y-11400D02*
X10900Y-11250D01*
X8900Y-7750D02*
X9750Y-7750D01*
X8900Y-11250D02*
X9750Y-11250D01*
X9750Y-11250D02*
X9900Y-11400D01*
G54D10*
G36*
X15080Y-11830D02*
X15004Y-11830D01*
X15004Y-9219D01*
X14977Y-9085D01*
X14908Y-9050D01*
X14708Y-9250D01*
X14908Y-9449D01*
X14977Y-9414D01*
X15004Y-9219D01*
X15004Y-11830D01*
X14945Y-11830D01*
X14945Y-10501D01*
X14877Y-10338D01*
X14794Y-10254D01*
X14877Y-10172D01*
X14945Y-10008D01*
X14945Y-9831D01*
X14877Y-9668D01*
X14752Y-9542D01*
X14588Y-9474D01*
X14515Y-9474D01*
X14500Y-9458D01*
X14484Y-9474D01*
X14411Y-9474D01*
X14291Y-9524D01*
X14291Y-9250D01*
X14091Y-9050D01*
X14022Y-9085D01*
X13995Y-9280D01*
X14022Y-9414D01*
X14091Y-9449D01*
X14291Y-9250D01*
X14291Y-9524D01*
X14248Y-9542D01*
X14122Y-9667D01*
X14054Y-9831D01*
X14054Y-9833D01*
X14010Y-9825D01*
X12450Y-9825D01*
X12450Y-9770D01*
X12427Y-9715D01*
X12385Y-9672D01*
X12329Y-9650D01*
X12325Y-9650D01*
X12325Y-8995D01*
X12325Y-8445D01*
X12302Y-8390D01*
X12260Y-8347D01*
X12204Y-8325D01*
X12145Y-8324D01*
X11595Y-8324D01*
X11540Y-8347D01*
X11497Y-8389D01*
X11475Y-8445D01*
X11474Y-8499D01*
X11469Y-8486D01*
X11413Y-8430D01*
X11339Y-8400D01*
X11260Y-8399D01*
X11100Y-8400D01*
X11050Y-8450D01*
X11050Y-8750D01*
X11057Y-8750D01*
X11057Y-9050D01*
X11050Y-9050D01*
X11050Y-9350D01*
X11100Y-9400D01*
X11260Y-9400D01*
X11339Y-9399D01*
X11413Y-9369D01*
X11469Y-9313D01*
X11500Y-9239D01*
X11500Y-9112D01*
X11539Y-9152D01*
X11595Y-9174D01*
X11654Y-9175D01*
X12204Y-9175D01*
X12259Y-9152D01*
X12302Y-9110D01*
X12324Y-9054D01*
X12325Y-8995D01*
X12325Y-9650D01*
X12270Y-9649D01*
X11470Y-9649D01*
X11415Y-9672D01*
X11372Y-9714D01*
X11350Y-9770D01*
X11349Y-9829D01*
X11349Y-10085D01*
X11288Y-10055D01*
X11094Y-10250D01*
X11288Y-10444D01*
X11349Y-10414D01*
X11349Y-10429D01*
X11372Y-10484D01*
X11414Y-10527D01*
X11470Y-10549D01*
X11529Y-10550D01*
X12329Y-10550D01*
X12384Y-10527D01*
X12427Y-10485D01*
X12449Y-10429D01*
X12450Y-10375D01*
X13896Y-10375D01*
X14054Y-10533D01*
X14054Y-10678D01*
X14122Y-10841D01*
X14247Y-10967D01*
X14411Y-11035D01*
X14588Y-11035D01*
X14751Y-10967D01*
X14877Y-10842D01*
X14945Y-10678D01*
X14945Y-10501D01*
X14945Y-11830D01*
X12377Y-11830D01*
X12384Y-11827D01*
X12427Y-11785D01*
X12449Y-11729D01*
X12450Y-11670D01*
X12450Y-11070D01*
X12427Y-11015D01*
X12385Y-10972D01*
X12329Y-10950D01*
X12270Y-10949D01*
X11470Y-10949D01*
X11415Y-10972D01*
X11372Y-11014D01*
X11350Y-11070D01*
X11349Y-11125D01*
X11325Y-11125D01*
X11325Y-10945D01*
X11302Y-10890D01*
X11260Y-10847D01*
X11204Y-10825D01*
X11145Y-10824D01*
X11094Y-10824D01*
X11094Y-10638D01*
X11094Y-9861D01*
X11061Y-9793D01*
X10874Y-9766D01*
X10750Y-9791D01*
X10750Y-9350D01*
X10750Y-9050D01*
X10750Y-8750D01*
X10750Y-8450D01*
X10700Y-8400D01*
X10539Y-8399D01*
X10460Y-8400D01*
X10400Y-8424D01*
X10339Y-8400D01*
X10260Y-8399D01*
X10100Y-8400D01*
X10050Y-8450D01*
X10050Y-8750D01*
X10350Y-8750D01*
X10450Y-8750D01*
X10750Y-8750D01*
X10750Y-9050D01*
X10450Y-9050D01*
X10350Y-9050D01*
X10050Y-9050D01*
X10050Y-9350D01*
X10100Y-9400D01*
X10260Y-9400D01*
X10339Y-9399D01*
X10400Y-9375D01*
X10460Y-9399D01*
X10539Y-9400D01*
X10700Y-9400D01*
X10750Y-9350D01*
X10750Y-9791D01*
X10738Y-9793D01*
X10705Y-9861D01*
X10900Y-10055D01*
X11094Y-9861D01*
X11094Y-10638D01*
X10900Y-10444D01*
X10705Y-10638D01*
X10738Y-10706D01*
X10925Y-10733D01*
X11061Y-10706D01*
X11094Y-10638D01*
X11094Y-10824D01*
X10705Y-10824D01*
X10705Y-10250D01*
X10511Y-10055D01*
X10500Y-10061D01*
X10500Y-10061D01*
X10500Y-9949D01*
X10450Y-9949D01*
X10500Y-9900D01*
X10500Y-9760D01*
X10469Y-9686D01*
X10413Y-9630D01*
X10339Y-9600D01*
X10260Y-9599D01*
X10100Y-9600D01*
X10050Y-9650D01*
X10050Y-9950D01*
X10057Y-9950D01*
X10057Y-10250D01*
X10050Y-10250D01*
X10050Y-10550D01*
X10100Y-10600D01*
X10260Y-10600D01*
X10339Y-10599D01*
X10413Y-10569D01*
X10469Y-10513D01*
X10500Y-10439D01*
X10500Y-10438D01*
X10511Y-10444D01*
X10705Y-10250D01*
X10705Y-10824D01*
X10595Y-10824D01*
X10540Y-10847D01*
X10497Y-10889D01*
X10475Y-10945D01*
X10474Y-11004D01*
X10474Y-11554D01*
X10497Y-11609D01*
X10539Y-11652D01*
X10595Y-11674D01*
X10654Y-11675D01*
X11204Y-11675D01*
X11204Y-11675D01*
X11349Y-11675D01*
X11349Y-11729D01*
X11372Y-11784D01*
X11414Y-11827D01*
X11422Y-11830D01*
X10377Y-11830D01*
X10384Y-11827D01*
X10427Y-11785D01*
X10449Y-11729D01*
X10450Y-11670D01*
X10450Y-11070D01*
X10427Y-11015D01*
X10385Y-10972D01*
X10329Y-10950D01*
X10270Y-10949D01*
X9750Y-10949D01*
X9750Y-10550D01*
X9750Y-10250D01*
X9742Y-10250D01*
X9742Y-9950D01*
X9750Y-9950D01*
X9750Y-9650D01*
X9750Y-9350D01*
X9750Y-9050D01*
X9742Y-9050D01*
X9742Y-8750D01*
X9750Y-8750D01*
X9750Y-8450D01*
X9700Y-8400D01*
X9539Y-8399D01*
X9460Y-8400D01*
X9386Y-8430D01*
X9330Y-8486D01*
X9299Y-8560D01*
X9299Y-8561D01*
X9288Y-8555D01*
X9094Y-8750D01*
X9288Y-8944D01*
X9300Y-8938D01*
X9300Y-9050D01*
X9349Y-9050D01*
X9300Y-9100D01*
X9299Y-9239D01*
X9330Y-9313D01*
X9386Y-9369D01*
X9460Y-9399D01*
X9539Y-9400D01*
X9700Y-9400D01*
X9750Y-9350D01*
X9750Y-9650D01*
X9700Y-9600D01*
X9539Y-9599D01*
X9460Y-9600D01*
X9386Y-9630D01*
X9330Y-9686D01*
X9299Y-9760D01*
X9300Y-9900D01*
X9349Y-9949D01*
X9300Y-9949D01*
X9300Y-10061D01*
X9288Y-10055D01*
X9094Y-10250D01*
X9288Y-10444D01*
X9299Y-10438D01*
X9299Y-10439D01*
X9330Y-10513D01*
X9386Y-10569D01*
X9460Y-10599D01*
X9539Y-10600D01*
X9700Y-10600D01*
X9750Y-10550D01*
X9750Y-10949D01*
X9470Y-10949D01*
X9415Y-10972D01*
X9412Y-10975D01*
X9325Y-10975D01*
X9325Y-10945D01*
X9302Y-10890D01*
X9260Y-10847D01*
X9204Y-10825D01*
X9145Y-10824D01*
X9094Y-10824D01*
X9094Y-10638D01*
X9094Y-9861D01*
X9094Y-9138D01*
X9094Y-8361D01*
X9061Y-8293D01*
X8874Y-8266D01*
X8738Y-8293D01*
X8705Y-8361D01*
X8900Y-8555D01*
X9094Y-8361D01*
X9094Y-9138D01*
X8900Y-8944D01*
X8705Y-9138D01*
X8738Y-9206D01*
X8925Y-9233D01*
X9061Y-9206D01*
X9094Y-9138D01*
X9094Y-9861D01*
X9061Y-9793D01*
X8874Y-9766D01*
X8738Y-9793D01*
X8705Y-9861D01*
X8900Y-10055D01*
X9094Y-9861D01*
X9094Y-10638D01*
X8900Y-10444D01*
X8705Y-10638D01*
X8738Y-10706D01*
X8925Y-10733D01*
X9061Y-10706D01*
X9094Y-10638D01*
X9094Y-10824D01*
X8595Y-10824D01*
X8540Y-10847D01*
X8497Y-10889D01*
X8475Y-10945D01*
X8474Y-11004D01*
X8474Y-11554D01*
X8497Y-11609D01*
X8539Y-11652D01*
X8595Y-11674D01*
X8654Y-11675D01*
X9204Y-11675D01*
X9259Y-11652D01*
X9302Y-11610D01*
X9324Y-11554D01*
X9325Y-11525D01*
X9349Y-11525D01*
X9349Y-11729D01*
X9372Y-11784D01*
X9414Y-11827D01*
X9422Y-11830D01*
X8419Y-11830D01*
X8419Y-10292D01*
X8443Y-10411D01*
X8511Y-10444D01*
X8705Y-10250D01*
X8511Y-10055D01*
X8443Y-10088D01*
X8419Y-10252D01*
X8419Y-8792D01*
X8443Y-8911D01*
X8511Y-8944D01*
X8705Y-8750D01*
X8511Y-8555D01*
X8443Y-8588D01*
X8419Y-8752D01*
X8419Y-7169D01*
X9422Y-7169D01*
X9415Y-7172D01*
X9372Y-7214D01*
X9350Y-7270D01*
X9349Y-7329D01*
X9349Y-7475D01*
X9325Y-7475D01*
X9325Y-7445D01*
X9302Y-7390D01*
X9260Y-7347D01*
X9204Y-7325D01*
X9145Y-7324D01*
X8595Y-7324D01*
X8540Y-7347D01*
X8497Y-7389D01*
X8475Y-7445D01*
X8474Y-7504D01*
X8474Y-8054D01*
X8497Y-8109D01*
X8539Y-8152D01*
X8595Y-8174D01*
X8654Y-8175D01*
X9204Y-8175D01*
X9259Y-8152D01*
X9302Y-8110D01*
X9324Y-8054D01*
X9325Y-8025D01*
X9412Y-8025D01*
X9414Y-8027D01*
X9470Y-8049D01*
X9529Y-8050D01*
X10329Y-8050D01*
X10384Y-8027D01*
X10399Y-8012D01*
X10414Y-8027D01*
X10470Y-8049D01*
X10529Y-8050D01*
X11329Y-8050D01*
X11384Y-8027D01*
X11427Y-7985D01*
X11449Y-7929D01*
X11450Y-7875D01*
X11491Y-7875D01*
X11539Y-7990D01*
X11658Y-8110D01*
X11815Y-8174D01*
X11984Y-8175D01*
X11992Y-8171D01*
X12059Y-8184D01*
X12060Y-8185D01*
X14145Y-8185D01*
X14205Y-8245D01*
X14122Y-8327D01*
X14054Y-8491D01*
X14054Y-8668D01*
X14122Y-8831D01*
X14247Y-8957D01*
X14411Y-9025D01*
X14484Y-9025D01*
X14500Y-9041D01*
X14515Y-9025D01*
X14588Y-9025D01*
X14751Y-8957D01*
X14877Y-8832D01*
X14945Y-8668D01*
X14945Y-8491D01*
X14877Y-8328D01*
X14794Y-8244D01*
X14877Y-8162D01*
X14945Y-7998D01*
X14945Y-7821D01*
X14877Y-7658D01*
X14752Y-7532D01*
X14588Y-7464D01*
X14411Y-7464D01*
X14248Y-7532D01*
X14145Y-7635D01*
X12312Y-7635D01*
X12260Y-7509D01*
X12141Y-7389D01*
X11984Y-7325D01*
X11815Y-7324D01*
X11794Y-7333D01*
X11750Y-7325D01*
X11450Y-7325D01*
X11450Y-7270D01*
X11427Y-7215D01*
X11385Y-7172D01*
X11377Y-7169D01*
X15080Y-7169D01*
X15080Y-11830D01*
X15080Y-11830D01*
G37*
G54D16*
X15080Y-11830D02*
X15004Y-11830D01*
X15004Y-9219D01*
X14977Y-9085D01*
X14908Y-9050D01*
X14708Y-9250D01*
X14908Y-9449D01*
X14977Y-9414D01*
X15004Y-9219D01*
X15004Y-11830D01*
X14945Y-11830D01*
X14945Y-10501D01*
X14877Y-10338D01*
X14794Y-10254D01*
X14877Y-10172D01*
X14945Y-10008D01*
X14945Y-9831D01*
X14877Y-9668D01*
X14752Y-9542D01*
X14588Y-9474D01*
X14515Y-9474D01*
X14500Y-9458D01*
X14484Y-9474D01*
X14411Y-9474D01*
X14291Y-9524D01*
X14291Y-9250D01*
X14091Y-9050D01*
X14022Y-9085D01*
X13995Y-9280D01*
X14022Y-9414D01*
X14091Y-9449D01*
X14291Y-9250D01*
X14291Y-9524D01*
X14248Y-9542D01*
X14122Y-9667D01*
X14054Y-9831D01*
X14054Y-9833D01*
X14010Y-9825D01*
X12450Y-9825D01*
X12450Y-9770D01*
X12427Y-9715D01*
X12385Y-9672D01*
X12329Y-9650D01*
X12325Y-9650D01*
X12325Y-8995D01*
X12325Y-8445D01*
X12302Y-8390D01*
X12260Y-8347D01*
X12204Y-8325D01*
X12145Y-8324D01*
X11595Y-8324D01*
X11540Y-8347D01*
X11497Y-8389D01*
X11475Y-8445D01*
X11474Y-8499D01*
X11469Y-8486D01*
X11413Y-8430D01*
X11339Y-8400D01*
X11260Y-8399D01*
X11100Y-8400D01*
X11050Y-8450D01*
X11050Y-8750D01*
X11057Y-8750D01*
X11057Y-9050D01*
X11050Y-9050D01*
X11050Y-9350D01*
X11100Y-9400D01*
X11260Y-9400D01*
X11339Y-9399D01*
X11413Y-9369D01*
X11469Y-9313D01*
X11500Y-9239D01*
X11500Y-9112D01*
X11539Y-9152D01*
X11595Y-9174D01*
X11654Y-9175D01*
X12204Y-9175D01*
X12259Y-9152D01*
X12302Y-9110D01*
X12324Y-9054D01*
X12325Y-8995D01*
X12325Y-9650D01*
X12270Y-9649D01*
X11470Y-9649D01*
X11415Y-9672D01*
X11372Y-9714D01*
X11350Y-9770D01*
X11349Y-9829D01*
X11349Y-10085D01*
X11288Y-10055D01*
X11094Y-10250D01*
X11288Y-10444D01*
X11349Y-10414D01*
X11349Y-10429D01*
X11372Y-10484D01*
X11414Y-10527D01*
X11470Y-10549D01*
X11529Y-10550D01*
X12329Y-10550D01*
X12384Y-10527D01*
X12427Y-10485D01*
X12449Y-10429D01*
X12450Y-10375D01*
X13896Y-10375D01*
X14054Y-10533D01*
X14054Y-10678D01*
X14122Y-10841D01*
X14247Y-10967D01*
X14411Y-11035D01*
X14588Y-11035D01*
X14751Y-10967D01*
X14877Y-10842D01*
X14945Y-10678D01*
X14945Y-10501D01*
X14945Y-11830D01*
X12377Y-11830D01*
X12384Y-11827D01*
X12427Y-11785D01*
X12449Y-11729D01*
X12450Y-11670D01*
X12450Y-11070D01*
X12427Y-11015D01*
X12385Y-10972D01*
X12329Y-10950D01*
X12270Y-10949D01*
X11470Y-10949D01*
X11415Y-10972D01*
X11372Y-11014D01*
X11350Y-11070D01*
X11349Y-11125D01*
X11325Y-11125D01*
X11325Y-10945D01*
X11302Y-10890D01*
X11260Y-10847D01*
X11204Y-10825D01*
X11145Y-10824D01*
X11094Y-10824D01*
X11094Y-10638D01*
X11094Y-9861D01*
X11061Y-9793D01*
X10874Y-9766D01*
X10750Y-9791D01*
X10750Y-9350D01*
X10750Y-9050D01*
X10750Y-8750D01*
X10750Y-8450D01*
X10700Y-8400D01*
X10539Y-8399D01*
X10460Y-8400D01*
X10400Y-8424D01*
X10339Y-8400D01*
X10260Y-8399D01*
X10100Y-8400D01*
X10050Y-8450D01*
X10050Y-8750D01*
X10350Y-8750D01*
X10450Y-8750D01*
X10750Y-8750D01*
X10750Y-9050D01*
X10450Y-9050D01*
X10350Y-9050D01*
X10050Y-9050D01*
X10050Y-9350D01*
X10100Y-9400D01*
X10260Y-9400D01*
X10339Y-9399D01*
X10400Y-9375D01*
X10460Y-9399D01*
X10539Y-9400D01*
X10700Y-9400D01*
X10750Y-9350D01*
X10750Y-9791D01*
X10738Y-9793D01*
X10705Y-9861D01*
X10900Y-10055D01*
X11094Y-9861D01*
X11094Y-10638D01*
X10900Y-10444D01*
X10705Y-10638D01*
X10738Y-10706D01*
X10925Y-10733D01*
X11061Y-10706D01*
X11094Y-10638D01*
X11094Y-10824D01*
X10705Y-10824D01*
X10705Y-10250D01*
X10511Y-10055D01*
X10500Y-10061D01*
X10500Y-10061D01*
X10500Y-9949D01*
X10450Y-9949D01*
X10500Y-9900D01*
X10500Y-9760D01*
X10469Y-9686D01*
X10413Y-9630D01*
X10339Y-9600D01*
X10260Y-9599D01*
X10100Y-9600D01*
X10050Y-9650D01*
X10050Y-9950D01*
X10057Y-9950D01*
X10057Y-10250D01*
X10050Y-10250D01*
X10050Y-10550D01*
X10100Y-10600D01*
X10260Y-10600D01*
X10339Y-10599D01*
X10413Y-10569D01*
X10469Y-10513D01*
X10500Y-10439D01*
X10500Y-10438D01*
X10511Y-10444D01*
X10705Y-10250D01*
X10705Y-10824D01*
X10595Y-10824D01*
X10540Y-10847D01*
X10497Y-10889D01*
X10475Y-10945D01*
X10474Y-11004D01*
X10474Y-11554D01*
X10497Y-11609D01*
X10539Y-11652D01*
X10595Y-11674D01*
X10654Y-11675D01*
X11204Y-11675D01*
X11204Y-11675D01*
X11349Y-11675D01*
X11349Y-11729D01*
X11372Y-11784D01*
X11414Y-11827D01*
X11422Y-11830D01*
X10377Y-11830D01*
X10384Y-11827D01*
X10427Y-11785D01*
X10449Y-11729D01*
X10450Y-11670D01*
X10450Y-11070D01*
X10427Y-11015D01*
X10385Y-10972D01*
X10329Y-10950D01*
X10270Y-10949D01*
X9750Y-10949D01*
X9750Y-10550D01*
X9750Y-10250D01*
X9742Y-10250D01*
X9742Y-9950D01*
X9750Y-9950D01*
X9750Y-9650D01*
X9750Y-9350D01*
X9750Y-9050D01*
X9742Y-9050D01*
X9742Y-8750D01*
X9750Y-8750D01*
X9750Y-8450D01*
X9700Y-8400D01*
X9539Y-8399D01*
X9460Y-8400D01*
X9386Y-8430D01*
X9330Y-8486D01*
X9299Y-8560D01*
X9299Y-8561D01*
X9288Y-8555D01*
X9094Y-8750D01*
X9288Y-8944D01*
X9300Y-8938D01*
X9300Y-9050D01*
X9349Y-9050D01*
X9300Y-9100D01*
X9299Y-9239D01*
X9330Y-9313D01*
X9386Y-9369D01*
X9460Y-9399D01*
X9539Y-9400D01*
X9700Y-9400D01*
X9750Y-9350D01*
X9750Y-9650D01*
X9700Y-9600D01*
X9539Y-9599D01*
X9460Y-9600D01*
X9386Y-9630D01*
X9330Y-9686D01*
X9299Y-9760D01*
X9300Y-9900D01*
X9349Y-9949D01*
X9300Y-9949D01*
X9300Y-10061D01*
X9288Y-10055D01*
X9094Y-10250D01*
X9288Y-10444D01*
X9299Y-10438D01*
X9299Y-10439D01*
X9330Y-10513D01*
X9386Y-10569D01*
X9460Y-10599D01*
X9539Y-10600D01*
X9700Y-10600D01*
X9750Y-10550D01*
X9750Y-10949D01*
X9470Y-10949D01*
X9415Y-10972D01*
X9412Y-10975D01*
X9325Y-10975D01*
X9325Y-10945D01*
X9302Y-10890D01*
X9260Y-10847D01*
X9204Y-10825D01*
X9145Y-10824D01*
X9094Y-10824D01*
X9094Y-10638D01*
X9094Y-9861D01*
X9094Y-9138D01*
X9094Y-8361D01*
X9061Y-8293D01*
X8874Y-8266D01*
X8738Y-8293D01*
X8705Y-8361D01*
X8900Y-8555D01*
X9094Y-8361D01*
X9094Y-9138D01*
X8900Y-8944D01*
X8705Y-9138D01*
X8738Y-9206D01*
X8925Y-9233D01*
X9061Y-9206D01*
X9094Y-9138D01*
X9094Y-9861D01*
X9061Y-9793D01*
X8874Y-9766D01*
X8738Y-9793D01*
X8705Y-9861D01*
X8900Y-10055D01*
X9094Y-9861D01*
X9094Y-10638D01*
X8900Y-10444D01*
X8705Y-10638D01*
X8738Y-10706D01*
X8925Y-10733D01*
X9061Y-10706D01*
X9094Y-10638D01*
X9094Y-10824D01*
X8595Y-10824D01*
X8540Y-10847D01*
X8497Y-10889D01*
X8475Y-10945D01*
X8474Y-11004D01*
X8474Y-11554D01*
X8497Y-11609D01*
X8539Y-11652D01*
X8595Y-11674D01*
X8654Y-11675D01*
X9204Y-11675D01*
X9259Y-11652D01*
X9302Y-11610D01*
X9324Y-11554D01*
X9325Y-11525D01*
X9349Y-11525D01*
X9349Y-11729D01*
X9372Y-11784D01*
X9414Y-11827D01*
X9422Y-11830D01*
X8419Y-11830D01*
X8419Y-10292D01*
X8443Y-10411D01*
X8511Y-10444D01*
X8705Y-10250D01*
X8511Y-10055D01*
X8443Y-10088D01*
X8419Y-10252D01*
X8419Y-8792D01*
X8443Y-8911D01*
X8511Y-8944D01*
X8705Y-8750D01*
X8511Y-8555D01*
X8443Y-8588D01*
X8419Y-8752D01*
X8419Y-7169D01*
X9422Y-7169D01*
X9415Y-7172D01*
X9372Y-7214D01*
X9350Y-7270D01*
X9349Y-7329D01*
X9349Y-7475D01*
X9325Y-7475D01*
X9325Y-7445D01*
X9302Y-7390D01*
X9260Y-7347D01*
X9204Y-7325D01*
X9145Y-7324D01*
X8595Y-7324D01*
X8540Y-7347D01*
X8497Y-7389D01*
X8475Y-7445D01*
X8474Y-7504D01*
X8474Y-8054D01*
X8497Y-8109D01*
X8539Y-8152D01*
X8595Y-8174D01*
X8654Y-8175D01*
X9204Y-8175D01*
X9259Y-8152D01*
X9302Y-8110D01*
X9324Y-8054D01*
X9325Y-8025D01*
X9412Y-8025D01*
X9414Y-8027D01*
X9470Y-8049D01*
X9529Y-8050D01*
X10329Y-8050D01*
X10384Y-8027D01*
X10399Y-8012D01*
X10414Y-8027D01*
X10470Y-8049D01*
X10529Y-8050D01*
X11329Y-8050D01*
X11384Y-8027D01*
X11427Y-7985D01*
X11449Y-7929D01*
X11450Y-7875D01*
X11491Y-7875D01*
X11539Y-7990D01*
X11658Y-8110D01*
X11815Y-8174D01*
X11984Y-8175D01*
X11992Y-8171D01*
X12059Y-8184D01*
X12060Y-8185D01*
X14145Y-8185D01*
X14205Y-8245D01*
X14122Y-8327D01*
X14054Y-8491D01*
X14054Y-8668D01*
X14122Y-8831D01*
X14247Y-8957D01*
X14411Y-9025D01*
X14484Y-9025D01*
X14500Y-9041D01*
X14515Y-9025D01*
X14588Y-9025D01*
X14751Y-8957D01*
X14877Y-8832D01*
X14945Y-8668D01*
X14945Y-8491D01*
X14877Y-8328D01*
X14794Y-8244D01*
X14877Y-8162D01*
X14945Y-7998D01*
X14945Y-7821D01*
X14877Y-7658D01*
X14752Y-7532D01*
X14588Y-7464D01*
X14411Y-7464D01*
X14248Y-7532D01*
X14145Y-7635D01*
X12312Y-7635D01*
X12260Y-7509D01*
X12141Y-7389D01*
X11984Y-7325D01*
X11815Y-7324D01*
X11794Y-7333D01*
X11750Y-7325D01*
X11450Y-7325D01*
X11450Y-7270D01*
X11427Y-7215D01*
X11385Y-7172D01*
X11377Y-7169D01*
X15080Y-7169D01*
X15080Y-11830D01*
M02*
