<?xml version="1.0" encoding="UTF-8" standalone="no"?>
<svg
   xmlns:dc="http://purl.org/dc/elements/1.1/"
   xmlns:cc="http://creativecommons.org/ns#"
   xmlns:rdf="http://www.w3.org/1999/02/22-rdf-syntax-ns#"
   xmlns:svg="http://www.w3.org/2000/svg"
   xmlns="http://www.w3.org/2000/svg"
   xmlns:sodipodi="http://sodipodi.sourceforge.net/DTD/sodipodi-0.dtd"
   xmlns:inkscape="http://www.inkscape.org/namespaces/inkscape"
   version="1.1"
   width="3.02006cm"
   height="1.8288cm"
   viewBox="0 0 11890 7200 "
   id="svg3446"
   inkscape:version="0.48.4 r9939"
   sodipodi:docname="potato--brd.svg"
   inkscape:export-filename="/home/asx/kicad/potato/potato--brd.png"
   inkscape:export-xdpi="909.16998"
   inkscape:export-ydpi="909.16998">
  <metadata
     id="metadata3886">
    <rdf:RDF>
      <cc:Work
         rdf:about="">
        <dc:format>image/svg+xml</dc:format>
        <dc:type
           rdf:resource="http://purl.org/dc/dcmitype/StillImage" />
        <dc:title>SVG Picture created as potato--brd.svg date 2013/09/08 10:43:45 </dc:title>
      </cc:Work>
    </rdf:RDF>
  </metadata>
  <defs
     id="defs3884" />
  <sodipodi:namedview
     pagecolor="#ffffff"
     bordercolor="#666666"
     borderopacity="1"
     objecttolerance="10"
     gridtolerance="10"
     guidetolerance="10"
     inkscape:pageopacity="0"
     inkscape:pageshadow="2"
     inkscape:window-width="1920"
     inkscape:window-height="1027"
     id="namedview3882"
     showgrid="false"
     inkscape:zoom="7.9294283"
     inkscape:cx="86.168519"
     inkscape:cy="26.319374"
     inkscape:window-x="0"
     inkscape:window-y="0"
     inkscape:window-maximized="1"
     inkscape:current-layer="svg3446" />
  <title
     id="title3448">SVG Picture created as potato--brd.svg date 2013/09/08 10:43:45 </title>
  <desc
     id="desc3450">Picture generated by PCBNEW </desc>
  <g
     style="fill:#A00000; fill-opacity:1.0;  stroke:#A00000; stroke-width:19.685; stroke-opacity:1;  stroke-linecap:round; stroke-linejoin:round;"
     id="g3844">
    <polyline
       style="fill-rule:evenodd;"
       points="10850,3579 10774,3502 10774,2856 10747,2723 10678,2687 10478,2887 10678,3087 10747,3052 10774,2856 10774,3502 10697,3426 10647,3305 10522,3180 10358,3112 10285,3112 10269,3096 10254,3112 10181,3112 10061,3162 10061,2887 9861,2687 9792,2723 9765,2918 9792,3052 9861,3087 10061,2887 10061,3162 10018,3180 9892,3305 9824,3468 9824,3471 9779,3462 8219,3462 8219,3408 8197,3352 8155,3310 8099,3287 8040,3287 7240,3287 7185,3310 7142,3352 7119,3407 7119,3467 7119,3722 7058,3693 6864,3887 6878,3902 6864,3916 6864,3499 6831,3431 6644,3404 6519,3428 6519,2987 6519,2687 6219,2687 6119,2687 5819,2687 5819,2987 5869,3037 6030,3037 6109,3037 6169,3012 6230,3037 6309,3037 6469,3037 6519,2987 6519,3428 6508,3431 6475,3499 6669,3693 6864,3499 6864,3916 6684,4096 6669,4082 6655,4096 6461,3902 6475,3887 6281,3693 6270,3699 6269,3699 6269,3587 6219,3587 6269,3537 6270,3398 6239,3324 6183,3268 6109,3237 6030,3237 5869,3237 5819,3287 5819,3587 5827,3587 5827,3887 5819,3887 5819,4187 5869,4237 6030,4237 6081,4237 5731,4587 5519,4587 5519,4187 5519,3887 5512,3887 5512,3587 5519,3587 5519,3287 5519,2987 5519,2687 5512,2687 5512,2387 5519,2387 5519,2087 5469,2037 5309,2037 5230,2037 5156,2068 5100,2124 5069,2198 5069,2199 5058,2193 4864,2387 5058,2581 5069,2576 5069,2687 5119,2687 5069,2737 5069,2877 5100,2950 5156,3007 5230,3037 5309,3037 5469,3037 5519,2987 5519,3287 5469,3237 5309,3237 5230,3237 5156,3268 5100,3324 5069,3398 5069,3537 5119,3587 5069,3587 5069,3699 5058,3693 4864,3887 5058,4081 5069,4076 5069,4077 5100,4150 5156,4207 5230,4237 5309,4237 5469,4237 5519,4187 5519,4587 5240,4587 5185,4610 5182,4612 5094,4612 5094,4583 5072,4527 5030,4485 4974,4462 4915,4462 4864,4462 4864,4276 4864,3499 4864,2776 4864,1999 4831,1931 4644,1904 4508,1931 4475,1999 4669,2193 4864,1999 4864,2776 4669,2582 4475,2776 4508,2844 4695,2871 4831,2844 4864,2776 4864,3499 4831,3431 4644,3404 4508,3431 4475,3499 4669,3693 4864,3499 4864,4276 4669,4082 4475,4276 4508,4344 4695,4371 4831,4344 4864,4276 4864,4462 4365,4462 4310,4485 4267,4527 4244,4582 4244,4642 4244,5192 4267,5247 4309,5289 4364,5312 4424,5312 4974,5312 5029,5290 5072,5247 5094,5192 5094,5162 5119,5162 5119,5367 5142,5422 5184,5464 5192,5468 4189,5468 4189,3929 4213,4049 4281,4081 4475,3887 4281,3693 4213,3726 4189,3890 4189,2429 4213,2549 4281,2581 4475,2387 4281,2193 4213,2226 4189,2390 4189,807 5192,807 5185,810 5142,852 5119,907 5119,967 5119,1112 5094,1112 5094,1083 5072,1027 5030,985 4974,962 4915,962 4365,962 4310,985 4267,1027 4244,1082 4244,1142 4244,1692 4267,1747 4309,1789 4364,1812 4424,1812 4974,1812 5029,1790 5072,1747 5094,1692 5094,1662 5182,1662 5184,1664 5239,1687 5299,1687 5431,1687 5825,2082 5819,2087 5819,2387 6119,2387 6219,2387 6519,2387 6519,2379 6819,2379 6819,2387 6827,2387 6827,2687 6819,2687 6819,2987 6869,3037 7030,3037 7109,3037 7183,3007 7239,2950 7270,2877 7269,2749 7309,2789 7364,2812 7424,2812 7974,2812 8029,2790 8072,2747 8094,2692 8094,2633 8094,2492 9915,2492 10017,2595 10181,2662 10254,2663 10269,2678 10285,2663 10358,2663 10521,2595 10647,2470 10715,2306 10715,2129 10647,1965 10564,1882 10647,1800 10715,1636 10715,1459 10647,1295 10522,1170 10358,1102 10181,1102 10018,1170 9915,1272 8082,1272 8030,1147 7911,1027 7754,962 7585,962 7564,971 7519,962 7219,962 7219,908 7197,852 7155,810 7147,807 10850,807 10850,3579 "
       id="polyline3846" />
  </g>
  <g
     style="fill:#A00000; fill-opacity:0.0;  stroke:#A00000; stroke-width:100; stroke-opacity:1;  stroke-linecap:round; stroke-linejoin:round;"
     id="g3848">
    <polyline
       fill="none;"
       points="10850,3579 10774,3502 10774,2856 10747,2723 10678,2687 10478,2887 10678,3087 10747,3052 10774,2856 10774,3502 10697,3426 10647,3305 10522,3180 10358,3112 10285,3112 10269,3096 10254,3112 10181,3112 10061,3162 10061,2887 9861,2687 9792,2723 9765,2918 9792,3052 9861,3087 10061,2887 10061,3162 10018,3180 9892,3305 9824,3468 9824,3471 9779,3462 8219,3462 8219,3408 8197,3352 8155,3310 8099,3287 8040,3287 7240,3287 7185,3310 7142,3352 7119,3407 7119,3467 7119,3722 7058,3693 6864,3887 6878,3902 6864,3916 6864,3499 6831,3431 6644,3404 6519,3428 6519,2987 6519,2687 6219,2687 6119,2687 5819,2687 5819,2987 5869,3037 6030,3037 6109,3037 6169,3012 6230,3037 6309,3037 6469,3037 6519,2987 6519,3428 6508,3431 6475,3499 6669,3693 6864,3499 6864,3916 6684,4096 6669,4082 6655,4096 6461,3902 6475,3887 6281,3693 6270,3699 6269,3699 6269,3587 6219,3587 6269,3537 6270,3398 6239,3324 6183,3268 6109,3237 6030,3237 5869,3237 5819,3287 5819,3587 5827,3587 5827,3887 5819,3887 5819,4187 5869,4237 6030,4237 6081,4237 5731,4587 5519,4587 5519,4187 5519,3887 5512,3887 5512,3587 5519,3587 5519,3287 5519,2987 5519,2687 5512,2687 5512,2387 5519,2387 5519,2087 5469,2037 5309,2037 5230,2037 5156,2068 5100,2124 5069,2198 5069,2199 5058,2193 4864,2387 5058,2581 5069,2576 5069,2687 5119,2687 5069,2737 5069,2877 5100,2950 5156,3007 5230,3037 5309,3037 5469,3037 5519,2987 5519,3287 5469,3237 5309,3237 5230,3237 5156,3268 5100,3324 5069,3398 5069,3537 5119,3587 5069,3587 5069,3699 5058,3693 4864,3887 5058,4081 5069,4076 5069,4077 5100,4150 5156,4207 5230,4237 5309,4237 5469,4237 5519,4187 5519,4587 5240,4587 5185,4610 5182,4612 5094,4612 5094,4583 5072,4527 5030,4485 4974,4462 4915,4462 4864,4462 4864,4276 4864,3499 4864,2776 4864,1999 4831,1931 4644,1904 4508,1931 4475,1999 4669,2193 4864,1999 4864,2776 4669,2582 4475,2776 4508,2844 4695,2871 4831,2844 4864,2776 4864,3499 4831,3431 4644,3404 4508,3431 4475,3499 4669,3693 4864,3499 4864,4276 4669,4082 4475,4276 4508,4344 4695,4371 4831,4344 4864,4276 4864,4462 4365,4462 4310,4485 4267,4527 4244,4582 4244,4642 4244,5192 4267,5247 4309,5289 4364,5312 4424,5312 4974,5312 5029,5290 5072,5247 5094,5192 5094,5162 5119,5162 5119,5367 5142,5422 5184,5464 5192,5468 4189,5468 4189,3929 4213,4049 4281,4081 4475,3887 4281,3693 4213,3726 4189,3890 4189,2429 4213,2549 4281,2581 4475,2387 4281,2193 4213,2226 4189,2390 4189,807 5192,807 5185,810 5142,852 5119,907 5119,967 5119,1112 5094,1112 5094,1083 5072,1027 5030,985 4974,962 4915,962 4365,962 4310,985 4267,1027 4244,1082 4244,1142 4244,1692 4267,1747 4309,1789 4364,1812 4424,1812 4974,1812 5029,1790 5072,1747 5094,1692 5094,1662 5182,1662 5184,1664 5239,1687 5299,1687 5431,1687 5825,2082 5819,2087 5819,2387 6119,2387 6219,2387 6519,2387 6519,2379 6819,2379 6819,2387 6827,2387 6827,2687 6819,2687 6819,2987 6869,3037 7030,3037 7109,3037 7183,3007 7239,2950 7270,2877 7269,2749 7309,2789 7364,2812 7424,2812 7974,2812 8029,2790 8072,2747 8094,2692 8094,2633 8094,2492 9915,2492 10017,2595 10181,2662 10254,2663 10269,2678 10285,2663 10358,2663 10521,2595 10647,2470 10715,2306 10715,2129 10647,1965 10564,1882 10647,1800 10715,1636 10715,1459 10647,1295 10522,1170 10358,1102 10181,1102 10018,1170 9915,1272 8082,1272 8030,1147 7911,1027 7754,962 7585,962 7564,971 7519,962 7219,962 7219,908 7197,852 7155,810 7147,807 10850,807 10850,3579 "
       id="polyline3850" />
  </g>
  <g
     style="fill:#A00000; fill-opacity:1.0;  stroke:#A00000; stroke-width:250; stroke-opacity:1;  stroke-linecap:round; stroke-linejoin:round;"
     id="g3800">
    <path
       d="M10269 1547 L7829 1547 "
       id="path3802" />
    <path
       d="M7519 1237 L6669 1237 "
       id="path3804" />
    <path
       d="M7829 1547 L7519 1237 "
       id="path3806" />
    <path
       d="M7669 3737 L9779 3737 "
       id="path3808" />
    <path
       d="M9779 3737 L10269 4227 "
       id="path3810" />
    <path
       d="M7669 5037 L6819 5037 "
       id="path3812" />
    <path
       d="M6819 5037 L6669 4887 "
       id="path3814" />
    <path
       d="M4669 1387 L5519 1387 "
       id="path3816" />
    <path
       d="M7499 2217 L10269 2217 "
       id="path3818" />
    <path
       d="M7169 1887 L7499 2217 "
       id="path3820" />
    <path
       d="M6019 1887 L7169 1887 "
       id="path3822" />
    <path
       d="M5519 1387 L6019 1887 "
       id="path3824" />
    <path
       d="M10269 3557 L10439 3557 "
       id="path3826" />
    <path
       d="M5819 4887 L4669 4887 "
       id="path3828" />
    <path
       d="M6319 4387 L5819 4887 "
       id="path3830" />
    <path
       d="M9519 4387 L6319 4387 "
       id="path3832" />
    <path
       d="M10019 4887 L9519 4387 "
       id="path3834" />
    <path
       d="M10519 4887 L10019 4887 "
       id="path3836" />
    <path
       d="M10769 4637 L10519 4887 "
       id="path3838" />
    <path
       d="M10769 3887 L10769 4637 "
       id="path3840" />
    <path
       d="M10439 3557 L10769 3887 "
       id="path3842" />
  </g>
  <g
     style="fill:#000000; fill-opacity:1;stroke:#000000; stroke-opacity:1; stroke-linecap:round; stroke-linejoin:round; "
     transform="translate(0 0) scale(1 1)"
     id="g3452" />
  <g
     style="fill:#FFFF00; fill-opacity:0.0;  stroke:#FFFF00; stroke-width:39.3701; stroke-opacity:1;  stroke-linecap:round; stroke-linejoin:round;"
     id="g3536">
    <path
       d="M11019 637 L4019 637 "
       id="path3538" />
    <path
       d="M11019 5637 L11019 637 "
       id="path3540" />
    <path
       d="M4019 5637 L11019 5637 "
       id="path3542" />
    <path
       d="M4019 637 L4019 5637 "
       id="path3544" />
  </g>
  <g
     style="fill:#00A0A0; fill-opacity:0.0;  stroke:#00A0A0; stroke-width:120; stroke-opacity:1;  stroke-linecap:round; stroke-linejoin:round;"
     id="g3652">
    <path
       d="M5169 5387 L4169 5387 "
       id="path3654" />
    <path
       d="M4169 5387 L4169 3387 "
       id="path3656" />
    <path
       d="M4169 3387 L5169 3387 "
       id="path3658" />
    <path
       d="M5169 3387 L5169 5387 "
       id="path3660" />
    <path
       d="M4169 887 L5169 887 "
       id="path3662" />
    <path
       d="M5169 887 L5169 2887 "
       id="path3664" />
    <path
       d="M5169 2887 L4169 2887 "
       id="path3666" />
    <path
       d="M4169 2887 L4169 887 "
       id="path3668" />
  </g>
  <g
     style="fill:#808000; fill-opacity:0.0;  stroke:#808000; stroke-width:19.685; stroke-opacity:1;  stroke-linecap:round; stroke-linejoin:round;"
     id="g3750" />
  <g
     style="fill:#808000; fill-opacity:1.0;  stroke:#808000; stroke-width:19.685; stroke-opacity:1;  stroke-linecap:round; stroke-linejoin:round;"
     id="g3752">
    <polyline
       style="fill-rule:evenodd;"
       points="4935,5152 4404,5152 4404,4622 4935,4622 4935,5152 "
       id="polyline3754" />
    <circle
       cx="4669.97"
       cy="3887.78"
       r="265.157"
       id="circle3756" />
    <polyline
       style="fill-rule:evenodd;"
       points="4404,1122 4935,1122 4935,1652 4404,1652 4404,1122 "
       id="polyline3758" />
    <circle
       cx="4669.97"
       cy="2387.78"
       r="265.157"
       id="circle3760" />
    <circle
       cx="10270"
       cy="4227.78"
       r="285.433"
       id="circle3762" />
    <circle
       cx="10270"
       cy="3557.78"
       r="285.433"
       id="circle3764" />
    <circle
       cx="10270"
       cy="2887.78"
       r="285.433"
       id="circle3766" />
    <circle
       cx="10270"
       cy="2217.78"
       r="285.433"
       id="circle3768" />
    <circle
       cx="10270"
       cy="1547.78"
       r="285.433"
       id="circle3770" />
  </g>
  <g
     style="fill:#A00000; fill-opacity:1.0;  stroke:#A00000; stroke-width:19.685; stroke-opacity:1;  stroke-linecap:round; stroke-linejoin:round;"
     id="g3772">
    <polyline
       style="fill-rule:evenodd;"
       points="5279,947 6060,947 6060,1527 5279,1527 5279,947 "
       id="polyline3774" />
    <polyline
       style="fill-rule:evenodd;"
       points="5279,2247 6060,2247 6060,2827 5279,2827 5279,2247 "
       id="polyline3776" />
    <polyline
       style="fill-rule:evenodd;"
       points="6060,5327 5279,5327 5279,4747 6060,4747 6060,5327 "
       id="polyline3778" />
    <polyline
       style="fill-rule:evenodd;"
       points="6060,4027 5279,4027 5279,3447 6060,3447 6060,4027 "
       id="polyline3780" />
    <polyline
       style="fill-rule:evenodd;"
       points="7279,3447 8060,3447 8060,4027 7279,4027 7279,3447 "
       id="polyline3782" />
    <polyline
       style="fill-rule:evenodd;"
       points="7279,4747 8060,4747 8060,5327 7279,5327 7279,4747 "
       id="polyline3784" />
    <polyline
       style="fill-rule:evenodd;"
       points="7060,2827 6279,2827 6279,2247 7060,2247 7060,2827 "
       id="polyline3786" />
    <polyline
       style="fill-rule:evenodd;"
       points="7060,1527 6279,1527 6279,947 7060,947 7060,1527 "
       id="polyline3788" />
  </g>
  <g
     style="fill:#808000; fill-opacity:1.0;  stroke:#808000; stroke-width:19.685; stroke-opacity:1;  stroke-linecap:round; stroke-linejoin:round;"
     id="g3790">
    <polyline
       style="fill-rule:evenodd;"
       points="7935,2652 7404,2652 7404,2122 7935,2122 7935,2652 "
       id="polyline3792" />
    <circle
       cx="7669.97"
       cy="1387.78"
       r="265.157"
       id="circle3794" />
    <polyline
       style="fill-rule:evenodd;"
       points="6935,5152 6404,5152 6404,4622 6935,4622 6935,5152 "
       id="polyline3796" />
    <circle
       cx="6669.97"
       cy="3887.78"
       r="265.157"
       id="circle3798" />
  </g>
  <g
     style="fill:#FFFFFF; fill-opacity:0.0;  stroke:#FFFFFF; stroke-width:19.685; stroke-opacity:1;  stroke-linecap:round; stroke-linejoin:round;"
     id="g3852" />
  <g
     style="fill:#FFFFFF; fill-opacity:1.0;  stroke:#FFFFFF; stroke-width:19.685; stroke-opacity:1;  stroke-linecap:round; stroke-linejoin:round;"
     id="g3854">
    <circle
       cx="4669.97"
       cy="4887.78"
       r="150.157"
       id="circle3856" />
    <circle
       cx="4669.97"
       cy="3887.78"
       r="150.157"
       id="circle3858" />
    <circle
       cx="4669.97"
       cy="1387.78"
       r="150.157"
       id="circle3860" />
    <circle
       cx="4669.97"
       cy="2387.78"
       r="150.157"
       id="circle3862" />
    <circle
       cx="10270"
       cy="4227.78"
       r="170.157"
       id="circle3864" />
    <circle
       cx="10270"
       cy="3557.78"
       r="170.157"
       id="circle3866" />
    <circle
       cx="10270"
       cy="2887.78"
       r="170.157"
       id="circle3868" />
    <circle
       cx="10270"
       cy="2217.78"
       r="170.157"
       id="circle3870" />
    <circle
       cx="10270"
       cy="1547.78"
       r="170.157"
       id="circle3872" />
    <circle
       cx="7669.97"
       cy="2387.78"
       r="150.157"
       id="circle3874" />
    <circle
       cx="7669.97"
       cy="1387.78"
       r="150.157"
       id="circle3876" />
    <circle
       cx="6669.97"
       cy="4887.78"
       r="150.157"
       id="circle3878" />
    <circle
       cx="6669.97"
       cy="3887.78"
       r="150.157"
       id="circle3880" />
  </g>
  <g
     style="fill:#00A0A0; fill-opacity:0.0;  stroke:#00A0A0; stroke-width:50; stroke-opacity:1;  stroke-linecap:round; stroke-linejoin:round;"
     id="g3454">
    <path
       d="M8410 4668 L8524 4668 "
       id="path3456" />
    <path
       d="M8467 4868 L8467 4668 "
       id="path3458" />
    <path
       d="M8581 4811 L8677 4811 "
       id="path3460" />
    <path
       d="M8562 4868 L8629 4668 L8696 4868 "
       id="path3462" />
    <path
       d="M8762 4868 L8762 4668 L8839 4668 L8858 4678 L8867 4687 L8877 4706 L8877 4735 L8867 4754 L8858 4763 L8839 4773 L8762 4773 "
       id="path3464" />
    <path
       d="M9077 4868 L9010 4773 "
       id="path3466" />
    <path
       d="M8962 4868 L8962 4668 L9039 4668 L9058 4678 L9067 4687 L9077 4706 L9077 4735 L9067 4754 L9058 4763 L9039 4773 L8962 4773 "
       id="path3468" />
    <path
       d="M9353 4668 L9391 4668 L9410 4678 L9429 4697 L9439 4735 L9439 4802 L9429 4840 L9410 4859 L9391 4868 L9353 4868 L9334 4859 L9315 4840 L9305 4802 L9305 4735 L9315 4697 L9334 4678 L9353 4668 "
       id="path3470" />
    <path
       d="M9524 4868 L9524 4668 "
       id="path3472" />
    <path
       d="M9524 4763 L9639 4763 "
       id="path3474" />
    <path
       d="M9639 4868 L9639 4668 "
       id="path3476" />
    <path
       d="M9829 4868 L9734 4868 L9734 4668 "
       id="path3478" />
    <path
       d="M8315 5093 L8343 5103 L8353 5113 L8362 5132 L8362 5160 L8353 5179 L8343 5189 L8324 5198 L8248 5198 L8248 4998 L8315 4998 L8334 5008 L8343 5017 L8353 5036 L8353 5055 L8343 5074 L8334 5084 L8315 5093 L8248 5093 "
       id="path3480" />
    <path
       d="M8534 5198 L8534 5093 L8524 5074 L8505 5065 L8467 5065 L8448 5074 "
       id="path3482" />
    <path
       d="M8534 5189 L8515 5198 L8467 5198 L8448 5189 L8439 5170 L8439 5151 L8448 5132 L8467 5122 L8515 5122 L8534 5113 "
       id="path3484" />
    <path
       d="M8629 5198 L8629 4998 "
       id="path3486" />
    <path
       d="M8629 5074 L8648 5065 L8686 5065 L8705 5074 L8715 5084 L8724 5103 L8724 5160 L8715 5179 L8705 5189 L8686 5198 L8648 5198 L8629 5189 "
       id="path3488" />
    <path
       d="M8791 5065 L8839 5198 "
       id="path3490" />
    <path
       d="M8886 5065 L8839 5198 L8819 5246 L8810 5255 L8791 5265 "
       id="path3492" />
    <path
       d="M9115 5198 L9115 4998 L9191 4998 L9210 5008 L9219 5017 L9229 5036 L9229 5065 L9219 5084 L9210 5093 L9191 5103 L9115 5103 "
       id="path3494" />
    <path
       d="M9343 5198 L9324 5189 L9315 5179 L9305 5160 L9305 5103 L9315 5084 L9324 5074 L9343 5065 L9372 5065 L9391 5074 L9400 5084 L9410 5103 L9410 5160 L9400 5179 L9391 5189 L9372 5198 L9343 5198 "
       id="path3496" />
    <path
       d="M9467 5065 L9543 5065 "
       id="path3498" />
    <path
       d="M9496 4998 L9496 5170 L9505 5189 L9524 5198 L9543 5198 "
       id="path3500" />
    <path
       d="M9696 5198 L9696 5093 L9686 5074 L9667 5065 L9629 5065 L9610 5074 "
       id="path3502" />
    <path
       d="M9696 5189 L9677 5198 L9629 5198 L9610 5189 L9600 5170 L9600 5151 L9610 5132 L9629 5122 L9677 5122 L9696 5113 "
       id="path3504" />
    <path
       d="M9762 5065 L9839 5065 "
       id="path3506" />
    <path
       d="M9791 4998 L9791 5170 L9800 5189 L9819 5198 L9839 5198 "
       id="path3508" />
    <path
       d="M9934 5198 L9915 5189 L9905 5179 L9896 5160 L9896 5103 L9905 5084 L9915 5074 L9934 5065 L9962 5065 L9981 5074 L9991 5084 L10000 5103 L10000 5160 L9991 5179 L9981 5189 L9962 5198 L9934 5198 "
       id="path3510" />
    <path
       d="M8248 5347 L8258 5338 L8277 5328 L8324 5328 L8343 5338 L8353 5347 L8362 5366 L8362 5385 L8353 5414 L8239 5528 L8362 5528 "
       id="path3512" />
    <path
       d="M8486 5328 L8505 5328 L8524 5338 L8534 5347 L8543 5366 L8553 5404 L8553 5452 L8543 5490 L8534 5509 L8524 5519 L8505 5528 L8486 5528 L8467 5519 L8458 5509 L8448 5490 L8439 5452 L8439 5404 L8448 5366 L8458 5347 L8467 5338 L8486 5328 "
       id="path3514" />
    <path
       d="M8743 5528 L8629 5528 "
       id="path3516" />
    <path
       d="M8686 5528 L8686 5328 L8667 5357 L8648 5376 L8629 5385 "
       id="path3518" />
    <path
       d="M8810 5328 L8934 5328 L8867 5404 L8896 5404 L8915 5414 L8924 5423 L8934 5443 L8934 5490 L8924 5509 L8915 5519 L8896 5528 L8839 5528 L8819 5519 L8810 5509 "
       id="path3520" />
    <path
       d="M9153 5395 L9200 5528 L9248 5395 "
       id="path3522" />
    <path
       d="M9362 5328 L9381 5328 L9400 5338 L9410 5347 L9419 5366 L9429 5404 L9429 5452 L9419 5490 L9410 5509 L9400 5519 L9381 5528 L9362 5528 L9343 5519 L9334 5509 L9324 5490 L9315 5452 L9315 5404 L9324 5366 L9334 5347 L9343 5338 L9362 5328 "
       id="path3524" />
    <path
       d="M9515 5509 L9524 5519 L9515 5528 L9505 5519 L9515 5509 L9515 5528 "
       id="path3526" />
    <path
       d="M9648 5328 L9667 5328 L9686 5338 L9696 5347 L9705 5366 L9715 5404 L9715 5452 L9705 5490 L9696 5509 L9686 5519 L9667 5528 L9648 5528 L9629 5519 L9619 5509 L9610 5490 L9600 5452 L9600 5404 L9610 5366 L9619 5347 L9629 5338 L9648 5328 "
       id="path3528" />
    <path
       d="M9800 5509 L9810 5519 L9800 5528 L9791 5519 L9800 5509 L9800 5528 "
       id="path3530" />
    <path
       d="M9981 5528 L9981 5423 L9972 5404 L9953 5395 L9915 5395 L9896 5404 "
       id="path3532" />
    <path
       d="M9981 5519 L9962 5528 L9915 5528 L9896 5519 L9886 5500 L9886 5481 L9896 5462 L9915 5452 L9962 5452 L9981 5443 "
       id="path3534" />
  </g>
  <g
     style="fill:#00A0A0; fill-opacity:0.0;  stroke:#00A0A0; stroke-width:59.0551; stroke-opacity:1;  stroke-linecap:round; stroke-linejoin:round;"
     id="g3580">
    <path
       d="M9235 4481 L9235 4406 L9254 4368 L9291 4331 L9366 4312 L9498 4312 L9573 4331 L9610 4368 L9629 4406 L9629 4481 L9610 4518 L9573 4556 L9498 4575 L9366 4575 L9291 4556 L9254 4518 L9235 4481 "
       id="path3582" />
    <path
       d="M9629 4143 L9235 4143 "
       id="path3584" />
    <path
       d="M9629 3918 L9404 4087 "
       id="path3586" />
    <path
       d="M9235 3918 L9460 4143 "
       id="path3588" />
    <path
       d="M9629 3525 L9441 3656 "
       id="path3590" />
    <path
       d="M9629 3750 L9235 3750 L9235 3600 L9254 3562 L9273 3543 L9310 3525 L9366 3525 L9404 3543 L9423 3562 L9441 3600 L9441 3750 "
       id="path3592" />
    <path
       d="M9479 3356 L9479 3056 "
       id="path3594" />
    <path
       d="M9235 2925 L9235 2700 "
       id="path3596" />
    <path
       d="M9629 2812 L9235 2812 "
       id="path3598" />
    <path
       d="M9235 2400 L9235 2475 L9254 2512 L9273 2531 L9329 2569 L9404 2587 L9554 2587 L9591 2569 L9610 2550 L9629 2512 L9629 2437 L9610 2400 L9591 2381 L9554 2362 L9460 2362 L9423 2381 L9404 2400 L9385 2437 L9385 2512 L9404 2550 L9423 2569 L9460 2587 "
       id="path3600" />
    <path
       d="M9216 1912 L9723 2250 "
       id="path3602" />
    <path
       d="M9629 1575 L9629 1800 "
       id="path3604" />
    <path
       d="M9629 1687 L9235 1687 L9291 1725 L9329 1762 L9348 1800 "
       id="path3606" />
    <path
       d="M9235 1331 L9235 1294 L9254 1256 L9273 1237 L9310 1219 L9385 1200 L9479 1200 L9554 1219 L9591 1237 L9610 1256 L9629 1294 L9629 1331 L9610 1369 L9591 1387 L9554 1406 L9479 1425 L9385 1425 L9310 1406 L9273 1387 L9254 1369 L9235 1331 "
       id="path3608" />
  </g>
  <g
     style="fill:#00A0A0; fill-opacity:0.0;  stroke:#00A0A0; stroke-width:120; stroke-opacity:1;  stroke-linecap:round; stroke-linejoin:round;"
     id="g3732">
    <path
       d="M8169 2887 L7169 2887 "
       id="path3734" />
    <path
       d="M7169 2887 L7169 887 "
       id="path3736" />
    <path
       d="M7169 887 L8169 887 "
       id="path3738" />
    <path
       d="M8169 887 L8169 2887 "
       id="path3740" />
    <path
       d="M7169 5387 L6169 5387 "
       id="path3742" />
    <path
       d="M6169 5387 L6169 3387 "
       id="path3744" />
    <path
       d="M6169 3387 L7169 3387 "
       id="path3746" />
    <path
       d="M7169 3387 L7169 5387 "
       id="path3748" />
  </g>
  <g
     style="fill:#00A0A0; fill-opacity:0.0;  stroke:#00A0A0; stroke-width:50; stroke-opacity:1;  stroke-linecap:round; stroke-linejoin:round;"
     id="g3670">
    <path
       d="M6119 887 L6119 787 "
       id="path3672" />
    <path
       d="M6119 787 L5219 787 "
       id="path3674" />
    <path
       d="M5219 787 L5219 887 "
       id="path3676" />
    <path
       d="M6119 887 L5219 887 "
       id="path3678" />
    <path
       d="M5219 887 L5219 1537 "
       id="path3680" />
    <path
       d="M6119 2237 L6119 2887 "
       id="path3682" />
    <path
       d="M6119 2887 L5219 2887 "
       id="path3684" />
    <path
       d="M5219 2887 L5219 2237 "
       id="path3686" />
    <path
       d="M6119 1537 L6119 887 "
       id="path3688" />
    <path
       d="M5219 5387 L5219 5487 "
       id="path3690" />
    <path
       d="M5219 5487 L6119 5487 "
       id="path3692" />
    <path
       d="M6119 5487 L6119 5387 "
       id="path3694" />
    <path
       d="M5219 5387 L6119 5387 "
       id="path3696" />
    <path
       d="M6119 5387 L6119 4737 "
       id="path3698" />
    <path
       d="M5219 4037 L5219 3387 "
       id="path3700" />
    <path
       d="M5219 3387 L6119 3387 "
       id="path3702" />
    <path
       d="M6119 3387 L6119 4037 "
       id="path3704" />
    <path
       d="M5219 4737 L5219 5387 "
       id="path3706" />
    <path
       d="M8119 3387 L7219 3387 "
       id="path3708" />
    <path
       d="M7219 3387 L7219 4037 "
       id="path3710" />
    <path
       d="M8119 4737 L8119 5387 "
       id="path3712" />
    <path
       d="M8119 5387 L7219 5387 "
       id="path3714" />
    <path
       d="M7219 5387 L7219 4737 "
       id="path3716" />
    <path
       d="M8119 4037 L8119 3387 "
       id="path3718" />
    <path
       d="M6219 2887 L7119 2887 "
       id="path3720" />
    <path
       d="M7119 2887 L7119 2237 "
       id="path3722" />
    <path
       d="M6219 1537 L6219 887 "
       id="path3724" />
    <path
       d="M6219 887 L7119 887 "
       id="path3726" />
    <path
       d="M7119 887 L7119 1537 "
       id="path3728" />
    <path
       d="M6219 2237 L6219 2887 "
       id="path3730" />
  </g>
  <g
     style="fill:#00A0A0; fill-opacity:0.0;  stroke:#00A0A0; stroke-width:50; stroke-opacity:1;  stroke-linecap:round; stroke-linejoin:round;"
     id="g3610">
    <path
       d="M5762 1937 L5777 1952 L5791 1994 L5791 2023 L5777 2066 L5748 2094 L5719 2109 L5662 2123 L5619 2123 L5562 2109 L5534 2094 L5505 2066 L5491 2023 L5491 1994 L5505 1952 L5519 1937 "
       id="path3612" />
    <path
       d="M5791 1652 L5791 1823 "
       id="path3614" />
    <path
       d="M5791 1737 L5491 1737 L5534 1766 L5562 1794 L5577 1823 "
       id="path3616" />
    <path
       d="M5762 4437 L5777 4452 L5791 4494 L5791 4523 L5777 4566 L5748 4594 L5719 4609 L5662 4623 L5619 4623 L5562 4609 L5534 4594 L5505 4566 L5491 4523 L5491 4494 L5505 4452 L5519 4437 "
       id="path3618" />
    <path
       d="M5519 4323 L5505 4309 L5491 4280 L5491 4209 L5505 4180 L5519 4166 L5548 4152 L5577 4152 L5619 4166 L5791 4337 L5791 4152 "
       id="path3620" />
    <path
       d="M7791 4437 L7648 4537 "
       id="path3622" />
    <path
       d="M7791 4609 L7491 4609 L7491 4494 L7505 4466 L7519 4452 L7548 4437 L7591 4437 L7619 4452 L7634 4466 L7648 4494 L7648 4609 "
       id="path3624" />
    <path
       d="M7519 4323 L7505 4309 L7491 4280 L7491 4209 L7505 4180 L7519 4166 L7548 4152 L7577 4152 L7619 4166 L7791 4337 L7791 4152 "
       id="path3626" />
    <path
       d="M6791 1937 L6648 2037 "
       id="path3628" />
    <path
       d="M6791 2109 L6491 2109 L6491 1994 L6505 1966 L6519 1952 L6548 1937 L6591 1937 L6619 1952 L6634 1966 L6648 1994 L6648 2109 "
       id="path3630" />
    <path
       d="M6791 1652 L6791 1823 "
       id="path3632" />
    <path
       d="M6791 1737 L6491 1737 L6534 1766 L6562 1794 L6577 1823 "
       id="path3634" />
    <path
       d="M7403 1959 L7431 1968 L7479 1968 L7498 1959 L7508 1949 L7517 1930 L7517 1911 L7508 1892 L7498 1883 L7479 1873 L7441 1863 L7422 1854 L7412 1844 L7403 1825 L7403 1806 L7412 1787 L7422 1778 L7441 1768 L7489 1768 L7517 1778 "
       id="path3636" />
    <path
       d="M7584 1768 L7631 1968 L7669 1825 L7708 1968 L7755 1768 "
       id="path3638" />
    <path
       d="M7936 1968 L7822 1968 "
       id="path3640" />
    <path
       d="M7879 1968 L7879 1768 L7860 1797 L7841 1816 L7822 1825 "
       id="path3642" />
    <path
       d="M6469 4472 L6469 4262 L6546 4262 L6565 4272 L6574 4282 L6584 4302 L6584 4332 L6574 4352 L6565 4362 L6546 4372 L6469 4372 "
       id="path3644" />
    <path
       d="M6698 4472 L6679 4462 L6669 4452 L6660 4432 L6660 4372 L6669 4352 L6679 4342 L6698 4332 L6727 4332 L6746 4342 L6755 4352 L6765 4372 L6765 4432 L6755 4452 L6746 4462 L6727 4472 L6698 4472 "
       id="path3646" />
    <path
       d="M6822 4332 L6898 4332 "
       id="path3648" />
    <path
       d="M6850 4262 L6850 4442 L6860 4462 L6879 4472 L6898 4472 "
       id="path3650" />
  </g>
  <g
     style="fill:#00A0A0; fill-opacity:0.0;  stroke:#00A0A0; stroke-width:50; stroke-opacity:1;  stroke-linecap:round; stroke-linejoin:round;"
     id="g3546">
    <path
       d="M4593 5542 L4746 5542 "
       id="path3548" />
    <path
       d="M4669 5618 L4669 5466 "
       id="path3550" />
    <path
       d="M4593 3142 L4746 3142 "
       id="path3552" />
    <path
       d="M4593 742 L4746 742 "
       id="path3554" />
    <path
       d="M4669 818 L4669 666 "
       id="path3556" />
    <path
       d="M4379 4468 L4379 4268 L4455 4268 L4474 4278 L4484 4287 L4493 4306 L4493 4335 L4484 4354 L4474 4363 L4455 4373 L4379 4373 "
       id="path3558" />
    <path
       d="M4608 4468 L4589 4459 L4579 4449 L4569 4430 L4569 4373 L4579 4354 L4589 4344 L4608 4335 L4636 4335 L4655 4344 L4665 4354 L4674 4373 L4674 4430 L4665 4449 L4655 4459 L4636 4468 L4608 4468 "
       id="path3560" />
    <path
       d="M4846 4335 L4846 4468 "
       id="path3562" />
    <path
       d="M4760 4335 L4760 4440 L4769 4459 L4789 4468 L4817 4468 L4836 4459 L4846 4449 "
       id="path3564" />
    <path
       d="M4912 4335 L4989 4335 "
       id="path3566" />
    <path
       d="M4941 4268 L4941 4440 L4950 4459 L4969 4468 L4989 4468 "
       id="path3568" />
    <path
       d="M4479 1968 L4479 1768 L4555 1768 L4574 1778 L4584 1787 L4593 1806 L4593 1835 L4584 1854 L4574 1863 L4555 1873 L4479 1873 "
       id="path3570" />
    <path
       d="M4679 1968 L4679 1835 "
       id="path3572" />
    <path
       d="M4679 1768 L4669 1778 L4679 1787 L4689 1778 L4679 1768 L4679 1787 "
       id="path3574" />
    <path
       d="M4774 1835 L4774 1968 "
       id="path3576" />
    <path
       d="M4774 1854 L4784 1844 L4803 1835 L4831 1835 L4850 1844 L4860 1863 L4860 1968 "
       id="path3578" />
  </g>
</svg>
