<?xml version="1.0" standalone="no"?>
 <!DOCTYPE svg PUBLIC "-//W3C//DTD SVG 1.1//EN" 
 "http://www.w3.org/Graphics/SVG/1.1/DTD/svg11.dtd"> 
<svg xmlns="http://www.w3.org/2000/svg" version="1.1" 
    width="3.02006cm" height="1.8288cm" viewBox="0 0 11890 7200 ">
<title>SVG Picture created as potato-F_SilkS.svg date 2013/10/01 23:05:45 </title>
  <desc>Picture generated by PCBNEW </desc>
<g style="fill:#000000; fill-opacity:1;stroke:#000000; stroke-opacity:1;
stroke-linecap:round; stroke-linejoin:round; "
 transform="translate(0 0) scale(1 1)">
</g>
<g style="fill:#00A0A0; fill-opacity:0.0; 
stroke:#00A0A0; stroke-width:47.5; stroke-opacity:1; 
stroke-linecap:round; stroke-linejoin:round;">
<path d="M8895 4674
L9004 4674
" />
<path d="M8950 4864
L8950 4674
" />
<path d="M9058 4810
L9149 4810
" />
<path d="M9040 4864
L9104 4674
L9167 4864
" />
<path d="M9230 4864
L9230 4674
L9303 4674
L9321 4683
L9330 4692
L9339 4710
L9339 4738
L9330 4756
L9321 4765
L9303 4774
L9230 4774
" />
<path d="M9529 4864
L9465 4774
" />
<path d="M9420 4864
L9420 4674
L9493 4674
L9511 4683
L9520 4692
L9529 4710
L9529 4738
L9520 4756
L9511 4765
L9493 4774
L9420 4774
" />
<path d="M9791 4674
L9827 4674
L9845 4683
L9864 4701
L9873 4738
L9873 4801
L9864 4837
L9845 4855
L9827 4864
L9791 4864
L9773 4855
L9755 4837
L9746 4801
L9746 4738
L9755 4701
L9773 4683
L9791 4674
" />
<path d="M9954 4864
L9954 4674
" />
<path d="M9954 4765
L10063 4765
" />
<path d="M10063 4864
L10063 4674
" />
<path d="M10244 4864
L10153 4864
L10153 4674
" />
<path d="M8303 5078
L8330 5087
L8339 5096
L8348 5114
L8348 5141
L8339 5160
L8330 5169
L8312 5178
L8239 5178
L8239 4988
L8303 4988
L8321 4997
L8330 5006
L8339 5024
L8339 5042
L8330 5060
L8321 5069
L8303 5078
L8239 5078
" />
<path d="M8511 5178
L8511 5078
L8502 5060
L8484 5051
L8448 5051
L8429 5060
" />
<path d="M8511 5169
L8493 5178
L8448 5178
L8429 5169
L8420 5151
L8420 5132
L8429 5114
L8448 5105
L8493 5105
L8511 5096
" />
<path d="M8601 5178
L8601 4988
" />
<path d="M8601 5060
L8619 5051
L8656 5051
L8674 5060
L8683 5069
L8692 5087
L8692 5141
L8683 5160
L8674 5169
L8656 5178
L8619 5178
L8601 5169
" />
<path d="M8755 5051
L8800 5178
" />
<path d="M8846 5051
L8800 5178
L8782 5223
L8773 5232
L8755 5241
" />
<path d="M9063 5178
L9063 4988
L9135 4988
L9153 4997
L9162 5006
L9171 5024
L9171 5051
L9162 5069
L9153 5078
L9135 5087
L9063 5087
" />
<path d="M9280 5178
L9262 5169
L9253 5160
L9244 5141
L9244 5087
L9253 5069
L9262 5060
L9280 5051
L9307 5051
L9325 5060
L9334 5069
L9343 5087
L9343 5141
L9334 5160
L9325 5169
L9307 5178
L9280 5178
" />
<path d="M9398 5051
L9470 5051
" />
<path d="M9425 4988
L9425 5151
L9434 5169
L9452 5178
L9470 5178
" />
<path d="M9615 5178
L9615 5078
L9606 5060
L9588 5051
L9551 5051
L9533 5060
" />
<path d="M9615 5169
L9597 5178
L9551 5178
L9533 5169
L9524 5151
L9524 5132
L9533 5114
L9551 5105
L9597 5105
L9615 5096
" />
<path d="M9678 5051
L9750 5051
" />
<path d="M9705 4988
L9705 5151
L9714 5169
L9732 5178
L9750 5178
" />
<path d="M9841 5178
L9823 5169
L9814 5160
L9805 5141
L9805 5087
L9814 5069
L9823 5060
L9841 5051
L9868 5051
L9886 5060
L9895 5069
L9904 5087
L9904 5141
L9895 5160
L9886 5169
L9868 5178
L9841 5178
" />
<path d="M10112 5051
L10158 5178
L10203 5051
" />
<path d="M10311 4988
L10329 4988
L10348 4997
L10357 5006
L10366 5024
L10375 5060
L10375 5105
L10366 5141
L10357 5160
L10348 5169
L10329 5178
L10311 5178
L10293 5169
L10284 5160
L10275 5141
L10266 5105
L10266 5060
L10275 5024
L10284 5006
L10293 4997
L10311 4988
" />
<path d="M10456 5160
L10465 5169
L10456 5178
L10447 5169
L10456 5160
L10456 5178
" />
<path d="M10646 5178
L10538 5178
" />
<path d="M10592 5178
L10592 4988
L10574 5015
L10556 5033
L10538 5042
" />
<path d="M10728 5160
L10737 5169
L10728 5178
L10719 5169
L10728 5160
L10728 5178
" />
<path d="M10899 5178
L10899 5078
L10890 5060
L10872 5051
L10836 5051
L10818 5060
" />
<path d="M10899 5169
L10881 5178
L10836 5178
L10818 5169
L10809 5151
L10809 5132
L10818 5114
L10836 5105
L10881 5105
L10899 5096
" />
<path d="M8552 5491
L8552 5301
L8615 5437
L8678 5301
L8678 5491
" />
<path d="M8769 5491
L8769 5365
" />
<path d="M8769 5301
L8760 5310
L8769 5319
L8778 5310
L8769 5301
L8769 5319
" />
<path d="M8886 5491
L8868 5482
L8859 5464
L8859 5301
" />
<path d="M8959 5491
L8959 5365
" />
<path d="M8959 5301
L8950 5310
L8959 5319
L8968 5310
L8959 5301
L8959 5319
" />
<path d="M9022 5365
L9094 5365
" />
<path d="M9049 5301
L9049 5464
L9058 5482
L9076 5491
L9094 5491
" />
<path d="M9239 5491
L9239 5392
L9230 5374
L9212 5365
L9176 5365
L9158 5374
" />
<path d="M9239 5482
L9221 5491
L9176 5491
L9158 5482
L9149 5464
L9149 5446
L9158 5428
L9176 5419
L9221 5419
L9239 5410
" />
<path d="M9330 5365
L9330 5491
" />
<path d="M9330 5383
L9339 5374
L9357 5365
L9384 5365
L9402 5374
L9411 5392
L9411 5491
" />
<path d="M9583 5482
L9565 5491
L9529 5491
L9511 5482
L9502 5473
L9493 5455
L9493 5401
L9502 5383
L9511 5374
L9529 5365
L9565 5365
L9583 5374
" />
<path d="M9646 5365
L9692 5491
" />
<path d="M9737 5365
L9692 5491
L9674 5536
L9664 5545
L9646 5555
" />
<path d="M9945 5319
L9954 5310
L9972 5301
L10017 5301
L10035 5310
L10044 5319
L10054 5337
L10054 5355
L10044 5383
L9936 5491
L10054 5491
" />
<path d="M10171 5301
L10189 5301
L10207 5310
L10216 5319
L10225 5337
L10234 5374
L10234 5419
L10225 5455
L10216 5473
L10207 5482
L10189 5491
L10171 5491
L10153 5482
L10144 5473
L10135 5455
L10126 5419
L10126 5374
L10135 5337
L10144 5319
L10153 5310
L10171 5301
" />
<path d="M10415 5491
L10307 5491
" />
<path d="M10361 5491
L10361 5301
L10343 5328
L10325 5346
L10307 5355
" />
<path d="M10479 5301
L10596 5301
L10533 5374
L10560 5374
L10578 5383
L10587 5392
L10596 5410
L10596 5455
L10587 5473
L10578 5482
L10560 5491
L10506 5491
L10488 5482
L10479 5473
" />
</g>
<g style="fill:#FFFF00; fill-opacity:0.0; 
stroke:#FFFF00; stroke-width:39.3701; stroke-opacity:1; 
stroke-linecap:round; stroke-linejoin:round;">
<path d="M11019 637
L4019 637
" />
<path d="M11019 5637
L11019 637
" />
<path d="M4019 5637
L11019 5637
" />
<path d="M4019 637
L4019 5637
" />
</g>
<g style="fill:#00A0A0; fill-opacity:0.0; 
stroke:#00A0A0; stroke-width:50; stroke-opacity:1; 
stroke-linecap:round; stroke-linejoin:round;">
<path d="M4593 5542
L4746 5542
" />
<path d="M4669 5618
L4669 5466
" />
<path d="M4593 3142
L4746 3142
" />
<path d="M4593 742
L4746 742
" />
<path d="M4669 818
L4669 666
" />
<path d="M4379 4468
L4379 4268
L4455 4268
L4474 4278
L4484 4287
L4493 4306
L4493 4335
L4484 4354
L4474 4363
L4455 4373
L4379 4373
" />
<path d="M4608 4468
L4589 4459
L4579 4449
L4569 4430
L4569 4373
L4579 4354
L4589 4344
L4608 4335
L4636 4335
L4655 4344
L4665 4354
L4674 4373
L4674 4430
L4665 4449
L4655 4459
L4636 4468
L4608 4468
" />
<path d="M4846 4335
L4846 4468
" />
<path d="M4760 4335
L4760 4440
L4769 4459
L4789 4468
L4817 4468
L4836 4459
L4846 4449
" />
<path d="M4912 4335
L4989 4335
" />
<path d="M4941 4268
L4941 4440
L4950 4459
L4969 4468
L4989 4468
" />
<path d="M4479 1968
L4479 1768
L4555 1768
L4574 1778
L4584 1787
L4593 1806
L4593 1835
L4584 1854
L4574 1863
L4555 1873
L4479 1873
" />
<path d="M4679 1968
L4679 1835
" />
<path d="M4679 1768
L4669 1778
L4679 1787
L4689 1778
L4679 1768
L4679 1787
" />
<path d="M4774 1835
L4774 1968
" />
<path d="M4774 1854
L4784 1844
L4803 1835
L4831 1835
L4850 1844
L4860 1863
L4860 1968
" />
</g>
<g style="fill:#00A0A0; fill-opacity:0.0; 
stroke:#00A0A0; stroke-width:59.0551; stroke-opacity:1; 
stroke-linecap:round; stroke-linejoin:round;">
<path d="M9235 4481
L9235 4406
L9254 4368
L9291 4331
L9366 4312
L9498 4312
L9573 4331
L9610 4368
L9629 4406
L9629 4481
L9610 4518
L9573 4556
L9498 4575
L9366 4575
L9291 4556
L9254 4518
L9235 4481
" />
<path d="M9629 4143
L9235 4143
" />
<path d="M9629 3918
L9404 4087
" />
<path d="M9235 3918
L9460 4143
" />
<path d="M9629 3525
L9441 3656
" />
<path d="M9629 3750
L9235 3750
L9235 3600
L9254 3562
L9273 3543
L9310 3525
L9366 3525
L9404 3543
L9423 3562
L9441 3600
L9441 3750
" />
<path d="M9479 3356
L9479 3056
" />
<path d="M9235 2925
L9235 2700
" />
<path d="M9629 2812
L9235 2812
" />
<path d="M9235 2400
L9235 2475
L9254 2512
L9273 2531
L9329 2569
L9404 2587
L9554 2587
L9591 2569
L9610 2550
L9629 2512
L9629 2437
L9610 2400
L9591 2381
L9554 2362
L9460 2362
L9423 2381
L9404 2400
L9385 2437
L9385 2512
L9404 2550
L9423 2569
L9460 2587
" />
<path d="M9216 1912
L9723 2250
" />
<path d="M9629 1575
L9629 1800
" />
<path d="M9629 1687
L9235 1687
L9291 1725
L9329 1762
L9348 1800
" />
<path d="M9235 1331
L9235 1294
L9254 1256
L9273 1237
L9310 1219
L9385 1200
L9479 1200
L9554 1219
L9591 1237
L9610 1256
L9629 1294
L9629 1331
L9610 1369
L9591 1387
L9554 1406
L9479 1425
L9385 1425
L9310 1406
L9273 1387
L9254 1369
L9235 1331
" />
</g>
<g style="fill:#00A0A0; fill-opacity:0.0; 
stroke:#00A0A0; stroke-width:50; stroke-opacity:1; 
stroke-linecap:round; stroke-linejoin:round;">
<path d="M5762 1937
L5777 1952
L5791 1994
L5791 2023
L5777 2066
L5748 2094
L5719 2109
L5662 2123
L5619 2123
L5562 2109
L5534 2094
L5505 2066
L5491 2023
L5491 1994
L5505 1952
L5519 1937
" />
<path d="M5791 1652
L5791 1823
" />
<path d="M5791 1737
L5491 1737
L5534 1766
L5562 1794
L5577 1823
" />
<path d="M5762 4437
L5777 4452
L5791 4494
L5791 4523
L5777 4566
L5748 4594
L5719 4609
L5662 4623
L5619 4623
L5562 4609
L5534 4594
L5505 4566
L5491 4523
L5491 4494
L5505 4452
L5519 4437
" />
<path d="M5519 4323
L5505 4309
L5491 4280
L5491 4209
L5505 4180
L5519 4166
L5548 4152
L5577 4152
L5619 4166
L5791 4337
L5791 4152
" />
<path d="M7791 4437
L7648 4537
" />
<path d="M7791 4609
L7491 4609
L7491 4494
L7505 4466
L7519 4452
L7548 4437
L7591 4437
L7619 4452
L7634 4466
L7648 4494
L7648 4609
" />
<path d="M7519 4323
L7505 4309
L7491 4280
L7491 4209
L7505 4180
L7519 4166
L7548 4152
L7577 4152
L7619 4166
L7791 4337
L7791 4152
" />
<path d="M6791 1937
L6648 2037
" />
<path d="M6791 2109
L6491 2109
L6491 1994
L6505 1966
L6519 1952
L6548 1937
L6591 1937
L6619 1952
L6634 1966
L6648 1994
L6648 2109
" />
<path d="M6791 1652
L6791 1823
" />
<path d="M6791 1737
L6491 1737
L6534 1766
L6562 1794
L6577 1823
" />
<path d="M7403 1959
L7431 1968
L7479 1968
L7498 1959
L7508 1949
L7517 1930
L7517 1911
L7508 1892
L7498 1883
L7479 1873
L7441 1863
L7422 1854
L7412 1844
L7403 1825
L7403 1806
L7412 1787
L7422 1778
L7441 1768
L7489 1768
L7517 1778
" />
<path d="M7584 1768
L7631 1968
L7669 1825
L7708 1968
L7755 1768
" />
<path d="M7936 1968
L7822 1968
" />
<path d="M7879 1968
L7879 1768
L7860 1797
L7841 1816
L7822 1825
" />
<path d="M6469 4472
L6469 4262
L6546 4262
L6565 4272
L6574 4282
L6584 4302
L6584 4332
L6574 4352
L6565 4362
L6546 4372
L6469 4372
" />
<path d="M6698 4472
L6679 4462
L6669 4452
L6660 4432
L6660 4372
L6669 4352
L6679 4342
L6698 4332
L6727 4332
L6746 4342
L6755 4352
L6765 4372
L6765 4432
L6755 4452
L6746 4462
L6727 4472
L6698 4472
" />
<path d="M6822 4332
L6898 4332
" />
<path d="M6850 4262
L6850 4442
L6860 4462
L6879 4472
L6898 4472
" />
</g>
<g style="fill:#00A0A0; fill-opacity:0.0; 
stroke:#00A0A0; stroke-width:120; stroke-opacity:1; 
stroke-linecap:round; stroke-linejoin:round;">
<path d="M5169 5387
L4169 5387
" />
<path d="M4169 5387
L4169 3387
" />
<path d="M4169 3387
L5169 3387
" />
<path d="M5169 3387
L5169 5387
" />
<path d="M4169 887
L5169 887
" />
<path d="M5169 887
L5169 2887
" />
<path d="M5169 2887
L4169 2887
" />
<path d="M4169 2887
L4169 887
" />
</g>
<g style="fill:#00A0A0; fill-opacity:0.0; 
stroke:#00A0A0; stroke-width:50; stroke-opacity:1; 
stroke-linecap:round; stroke-linejoin:round;">
<path d="M6119 887
L6119 787
" />
<path d="M6119 787
L5219 787
" />
<path d="M5219 787
L5219 887
" />
<path d="M6119 887
L5219 887
" />
<path d="M5219 887
L5219 1537
" />
<path d="M6119 2237
L6119 2887
" />
<path d="M6119 2887
L5219 2887
" />
<path d="M5219 2887
L5219 2237
" />
<path d="M6119 1537
L6119 887
" />
<path d="M5219 5387
L5219 5487
" />
<path d="M5219 5487
L6119 5487
" />
<path d="M6119 5487
L6119 5387
" />
<path d="M5219 5387
L6119 5387
" />
<path d="M6119 5387
L6119 4737
" />
<path d="M5219 4037
L5219 3387
" />
<path d="M5219 3387
L6119 3387
" />
<path d="M6119 3387
L6119 4037
" />
<path d="M5219 4737
L5219 5387
" />
<path d="M8119 3387
L7219 3387
" />
<path d="M7219 3387
L7219 4037
" />
<path d="M8119 4737
L8119 5387
" />
<path d="M8119 5387
L7219 5387
" />
<path d="M7219 5387
L7219 4737
" />
<path d="M8119 4037
L8119 3387
" />
<path d="M6219 2887
L7119 2887
" />
<path d="M7119 2887
L7119 2237
" />
<path d="M6219 1537
L6219 887
" />
<path d="M6219 887
L7119 887
" />
<path d="M7119 887
L7119 1537
" />
<path d="M6219 2237
L6219 2887
" />
</g>
<g style="fill:#00A0A0; fill-opacity:0.0; 
stroke:#00A0A0; stroke-width:120; stroke-opacity:1; 
stroke-linecap:round; stroke-linejoin:round;">
<path d="M8169 2887
L7169 2887
" />
<path d="M7169 2887
L7169 887
" />
<path d="M7169 887
L8169 887
" />
<path d="M8169 887
L8169 2887
" />
<path d="M7169 5387
L6169 5387
" />
<path d="M6169 5387
L6169 3387
" />
<path d="M6169 3387
L7169 3387
" />
<path d="M7169 3387
L7169 5387
" />
</g>
<g style="fill:#808000; fill-opacity:0.0; 
stroke:#808000; stroke-width:19.685; stroke-opacity:1; 
stroke-linecap:round; stroke-linejoin:round;">
</g>
<g style="fill:#808000; fill-opacity:1.0; 
stroke:#808000; stroke-width:19.685; stroke-opacity:1; 
stroke-linecap:round; stroke-linejoin:round;">
<polyline style="fill-rule:evenodd;"
points="4935,5152
4404,5152
4404,4622
4935,4622
4935,5152
" /> 
<circle cx="4669.97" cy="3887.78" r="265.157" /> 
<polyline style="fill-rule:evenodd;"
points="4404,1122
4935,1122
4935,1652
4404,1652
4404,1122
" /> 
<circle cx="4669.97" cy="2387.78" r="265.157" /> 
<circle cx="10270" cy="4227.78" r="285.433" /> 
<circle cx="10270" cy="3557.78" r="285.433" /> 
<circle cx="10270" cy="2887.78" r="285.433" /> 
<circle cx="10270" cy="2217.78" r="285.433" /> 
<circle cx="10270" cy="1547.78" r="285.433" /> 
<polyline style="fill-rule:evenodd;"
points="7935,2652
7404,2652
7404,2122
7935,2122
7935,2652
" /> 
<circle cx="7669.97" cy="1387.78" r="265.157" /> 
<polyline style="fill-rule:evenodd;"
points="6935,5152
6404,5152
6404,4622
6935,4622
6935,5152
" /> 
<circle cx="6669.97" cy="3887.78" r="265.157" /> 
</g> 
</svg>
