G04 (created by PCBNEW (2013-may-18)-stable) date Tue 01 Oct 2013 11:13:52 PM CDT*
%MOIN*%
G04 Gerber Fmt 3.4, Leading zero omitted, Abs format*
%FSLAX34Y34*%
G01*
G70*
G90*
G04 APERTURE LIST*
%ADD10C,0.006*%
%ADD11R,0.055X0.055*%
%ADD12C,0.055*%
%ADD13C,0.0590551*%
%ADD14C,0.01*%
G04 APERTURE END LIST*
G54D10*
G54D11*
X8900Y-11250D03*
G54D12*
X8900Y-10250D03*
G54D11*
X8900Y-7750D03*
G54D12*
X8900Y-8750D03*
G54D13*
X14500Y-10590D03*
X14500Y-9920D03*
X14500Y-9250D03*
X14500Y-8580D03*
X14500Y-7910D03*
G54D11*
X11900Y-8750D03*
G54D12*
X11900Y-7750D03*
G54D11*
X10900Y-11250D03*
G54D12*
X10900Y-10250D03*
G54D10*
G36*
X15080Y-9150D02*
X15004Y-9150D01*
X15004Y-8549D01*
X14977Y-8415D01*
X14945Y-8399D01*
X14945Y-7821D01*
X14877Y-7658D01*
X14752Y-7532D01*
X14588Y-7464D01*
X14411Y-7464D01*
X14248Y-7532D01*
X14122Y-7657D01*
X14054Y-7821D01*
X14054Y-7998D01*
X14122Y-8161D01*
X14247Y-8287D01*
X14411Y-8355D01*
X14484Y-8355D01*
X14500Y-8371D01*
X14515Y-8355D01*
X14588Y-8355D01*
X14751Y-8287D01*
X14877Y-8162D01*
X14945Y-7998D01*
X14945Y-7821D01*
X14945Y-8399D01*
X14908Y-8380D01*
X14708Y-8580D01*
X14908Y-8779D01*
X14977Y-8744D01*
X15004Y-8549D01*
X15004Y-9150D01*
X14940Y-9150D01*
X14877Y-8998D01*
X14752Y-8872D01*
X14588Y-8804D01*
X14515Y-8804D01*
X14500Y-8788D01*
X14484Y-8804D01*
X14411Y-8804D01*
X14291Y-8854D01*
X14291Y-8580D01*
X14091Y-8380D01*
X14022Y-8415D01*
X13995Y-8610D01*
X14022Y-8744D01*
X14091Y-8779D01*
X14291Y-8580D01*
X14291Y-8854D01*
X14248Y-8872D01*
X14122Y-8997D01*
X14059Y-9150D01*
X12332Y-9150D01*
X12344Y-9138D01*
X12375Y-9064D01*
X12375Y-8435D01*
X12344Y-8361D01*
X12325Y-8342D01*
X12325Y-7665D01*
X12260Y-7509D01*
X12141Y-7389D01*
X11984Y-7325D01*
X11815Y-7324D01*
X11659Y-7389D01*
X11539Y-7508D01*
X11475Y-7665D01*
X11474Y-7834D01*
X11539Y-7990D01*
X11658Y-8110D01*
X11815Y-8174D01*
X11984Y-8175D01*
X12140Y-8110D01*
X12260Y-7991D01*
X12324Y-7834D01*
X12325Y-7665D01*
X12325Y-8342D01*
X12288Y-8305D01*
X12214Y-8275D01*
X12135Y-8274D01*
X12087Y-8275D01*
X12037Y-8325D01*
X12037Y-8612D01*
X12325Y-8612D01*
X12375Y-8562D01*
X12375Y-8435D01*
X12375Y-9064D01*
X12375Y-8937D01*
X12325Y-8887D01*
X12037Y-8887D01*
X12037Y-8907D01*
X11762Y-8907D01*
X11762Y-8887D01*
X11762Y-8612D01*
X11762Y-8325D01*
X11712Y-8275D01*
X11664Y-8274D01*
X11585Y-8275D01*
X11511Y-8305D01*
X11455Y-8361D01*
X11424Y-8435D01*
X11425Y-8562D01*
X11475Y-8612D01*
X11762Y-8612D01*
X11762Y-8887D01*
X11475Y-8887D01*
X11425Y-8937D01*
X11424Y-9064D01*
X11455Y-9138D01*
X11467Y-9150D01*
X9375Y-9150D01*
X9375Y-8064D01*
X9375Y-7435D01*
X9344Y-7361D01*
X9288Y-7305D01*
X9214Y-7275D01*
X9135Y-7274D01*
X9087Y-7275D01*
X9037Y-7325D01*
X9037Y-7612D01*
X9325Y-7612D01*
X9375Y-7562D01*
X9375Y-7435D01*
X9375Y-8064D01*
X9375Y-7937D01*
X9325Y-7887D01*
X9037Y-7887D01*
X9037Y-8175D01*
X9087Y-8225D01*
X9135Y-8225D01*
X9214Y-8224D01*
X9288Y-8194D01*
X9344Y-8138D01*
X9375Y-8064D01*
X9375Y-9150D01*
X9044Y-9150D01*
X9140Y-9110D01*
X9260Y-8991D01*
X9324Y-8834D01*
X9325Y-8665D01*
X9260Y-8509D01*
X9141Y-8389D01*
X8984Y-8325D01*
X8815Y-8324D01*
X8762Y-8346D01*
X8762Y-8175D01*
X8762Y-7887D01*
X8762Y-7612D01*
X8762Y-7325D01*
X8712Y-7275D01*
X8664Y-7274D01*
X8585Y-7275D01*
X8511Y-7305D01*
X8455Y-7361D01*
X8424Y-7435D01*
X8425Y-7562D01*
X8475Y-7612D01*
X8762Y-7612D01*
X8762Y-7887D01*
X8475Y-7887D01*
X8425Y-7937D01*
X8424Y-8064D01*
X8455Y-8138D01*
X8511Y-8194D01*
X8585Y-8224D01*
X8664Y-8225D01*
X8712Y-8225D01*
X8762Y-8175D01*
X8762Y-8346D01*
X8659Y-8389D01*
X8539Y-8508D01*
X8475Y-8665D01*
X8474Y-8834D01*
X8539Y-8990D01*
X8658Y-9110D01*
X8755Y-9150D01*
X8419Y-9150D01*
X8419Y-7169D01*
X15080Y-7169D01*
X15080Y-9150D01*
X15080Y-9150D01*
G37*
G54D14*
X15080Y-9150D02*
X15004Y-9150D01*
X15004Y-8549D01*
X14977Y-8415D01*
X14945Y-8399D01*
X14945Y-7821D01*
X14877Y-7658D01*
X14752Y-7532D01*
X14588Y-7464D01*
X14411Y-7464D01*
X14248Y-7532D01*
X14122Y-7657D01*
X14054Y-7821D01*
X14054Y-7998D01*
X14122Y-8161D01*
X14247Y-8287D01*
X14411Y-8355D01*
X14484Y-8355D01*
X14500Y-8371D01*
X14515Y-8355D01*
X14588Y-8355D01*
X14751Y-8287D01*
X14877Y-8162D01*
X14945Y-7998D01*
X14945Y-7821D01*
X14945Y-8399D01*
X14908Y-8380D01*
X14708Y-8580D01*
X14908Y-8779D01*
X14977Y-8744D01*
X15004Y-8549D01*
X15004Y-9150D01*
X14940Y-9150D01*
X14877Y-8998D01*
X14752Y-8872D01*
X14588Y-8804D01*
X14515Y-8804D01*
X14500Y-8788D01*
X14484Y-8804D01*
X14411Y-8804D01*
X14291Y-8854D01*
X14291Y-8580D01*
X14091Y-8380D01*
X14022Y-8415D01*
X13995Y-8610D01*
X14022Y-8744D01*
X14091Y-8779D01*
X14291Y-8580D01*
X14291Y-8854D01*
X14248Y-8872D01*
X14122Y-8997D01*
X14059Y-9150D01*
X12332Y-9150D01*
X12344Y-9138D01*
X12375Y-9064D01*
X12375Y-8435D01*
X12344Y-8361D01*
X12325Y-8342D01*
X12325Y-7665D01*
X12260Y-7509D01*
X12141Y-7389D01*
X11984Y-7325D01*
X11815Y-7324D01*
X11659Y-7389D01*
X11539Y-7508D01*
X11475Y-7665D01*
X11474Y-7834D01*
X11539Y-7990D01*
X11658Y-8110D01*
X11815Y-8174D01*
X11984Y-8175D01*
X12140Y-8110D01*
X12260Y-7991D01*
X12324Y-7834D01*
X12325Y-7665D01*
X12325Y-8342D01*
X12288Y-8305D01*
X12214Y-8275D01*
X12135Y-8274D01*
X12087Y-8275D01*
X12037Y-8325D01*
X12037Y-8612D01*
X12325Y-8612D01*
X12375Y-8562D01*
X12375Y-8435D01*
X12375Y-9064D01*
X12375Y-8937D01*
X12325Y-8887D01*
X12037Y-8887D01*
X12037Y-8907D01*
X11762Y-8907D01*
X11762Y-8887D01*
X11762Y-8612D01*
X11762Y-8325D01*
X11712Y-8275D01*
X11664Y-8274D01*
X11585Y-8275D01*
X11511Y-8305D01*
X11455Y-8361D01*
X11424Y-8435D01*
X11425Y-8562D01*
X11475Y-8612D01*
X11762Y-8612D01*
X11762Y-8887D01*
X11475Y-8887D01*
X11425Y-8937D01*
X11424Y-9064D01*
X11455Y-9138D01*
X11467Y-9150D01*
X9375Y-9150D01*
X9375Y-8064D01*
X9375Y-7435D01*
X9344Y-7361D01*
X9288Y-7305D01*
X9214Y-7275D01*
X9135Y-7274D01*
X9087Y-7275D01*
X9037Y-7325D01*
X9037Y-7612D01*
X9325Y-7612D01*
X9375Y-7562D01*
X9375Y-7435D01*
X9375Y-8064D01*
X9375Y-7937D01*
X9325Y-7887D01*
X9037Y-7887D01*
X9037Y-8175D01*
X9087Y-8225D01*
X9135Y-8225D01*
X9214Y-8224D01*
X9288Y-8194D01*
X9344Y-8138D01*
X9375Y-8064D01*
X9375Y-9150D01*
X9044Y-9150D01*
X9140Y-9110D01*
X9260Y-8991D01*
X9324Y-8834D01*
X9325Y-8665D01*
X9260Y-8509D01*
X9141Y-8389D01*
X8984Y-8325D01*
X8815Y-8324D01*
X8762Y-8346D01*
X8762Y-8175D01*
X8762Y-7887D01*
X8762Y-7612D01*
X8762Y-7325D01*
X8712Y-7275D01*
X8664Y-7274D01*
X8585Y-7275D01*
X8511Y-7305D01*
X8455Y-7361D01*
X8424Y-7435D01*
X8425Y-7562D01*
X8475Y-7612D01*
X8762Y-7612D01*
X8762Y-7887D01*
X8475Y-7887D01*
X8425Y-7937D01*
X8424Y-8064D01*
X8455Y-8138D01*
X8511Y-8194D01*
X8585Y-8224D01*
X8664Y-8225D01*
X8712Y-8225D01*
X8762Y-8175D01*
X8762Y-8346D01*
X8659Y-8389D01*
X8539Y-8508D01*
X8475Y-8665D01*
X8474Y-8834D01*
X8539Y-8990D01*
X8658Y-9110D01*
X8755Y-9150D01*
X8419Y-9150D01*
X8419Y-7169D01*
X15080Y-7169D01*
X15080Y-9150D01*
G54D10*
G36*
X15080Y-11830D02*
X15004Y-11830D01*
X15004Y-9889D01*
X14977Y-9755D01*
X14908Y-9720D01*
X14708Y-9920D01*
X14908Y-10119D01*
X14977Y-10084D01*
X15004Y-9889D01*
X15004Y-11830D01*
X14945Y-11830D01*
X14945Y-10501D01*
X14877Y-10338D01*
X14752Y-10212D01*
X14588Y-10144D01*
X14515Y-10144D01*
X14500Y-10128D01*
X14484Y-10144D01*
X14411Y-10144D01*
X14291Y-10194D01*
X14291Y-9920D01*
X14091Y-9720D01*
X14022Y-9755D01*
X13995Y-9950D01*
X14022Y-10084D01*
X14091Y-10119D01*
X14291Y-9920D01*
X14291Y-10194D01*
X14248Y-10212D01*
X14122Y-10337D01*
X14054Y-10501D01*
X14054Y-10678D01*
X14122Y-10841D01*
X14247Y-10967D01*
X14411Y-11035D01*
X14588Y-11035D01*
X14751Y-10967D01*
X14877Y-10842D01*
X14945Y-10678D01*
X14945Y-10501D01*
X14945Y-11830D01*
X11325Y-11830D01*
X11325Y-10165D01*
X11260Y-10009D01*
X11141Y-9889D01*
X10984Y-9825D01*
X10815Y-9824D01*
X10659Y-9889D01*
X10539Y-10008D01*
X10475Y-10165D01*
X10474Y-10334D01*
X10539Y-10490D01*
X10658Y-10610D01*
X10815Y-10674D01*
X10984Y-10675D01*
X11140Y-10610D01*
X11260Y-10491D01*
X11324Y-10334D01*
X11325Y-10165D01*
X11325Y-11830D01*
X11325Y-11830D01*
X11325Y-11495D01*
X11325Y-10945D01*
X11302Y-10890D01*
X11260Y-10847D01*
X11204Y-10825D01*
X11145Y-10824D01*
X10595Y-10824D01*
X10540Y-10847D01*
X10497Y-10889D01*
X10475Y-10945D01*
X10474Y-11004D01*
X10474Y-11554D01*
X10497Y-11609D01*
X10539Y-11652D01*
X10595Y-11674D01*
X10654Y-11675D01*
X11204Y-11675D01*
X11259Y-11652D01*
X11302Y-11610D01*
X11324Y-11554D01*
X11325Y-11495D01*
X11325Y-11830D01*
X9375Y-11830D01*
X9375Y-11564D01*
X9375Y-10935D01*
X9344Y-10861D01*
X9325Y-10842D01*
X9325Y-10165D01*
X9260Y-10009D01*
X9141Y-9889D01*
X8984Y-9825D01*
X8815Y-9824D01*
X8659Y-9889D01*
X8539Y-10008D01*
X8475Y-10165D01*
X8474Y-10334D01*
X8539Y-10490D01*
X8658Y-10610D01*
X8815Y-10674D01*
X8984Y-10675D01*
X9140Y-10610D01*
X9260Y-10491D01*
X9324Y-10334D01*
X9325Y-10165D01*
X9325Y-10842D01*
X9288Y-10805D01*
X9214Y-10775D01*
X9135Y-10774D01*
X9087Y-10775D01*
X9037Y-10825D01*
X9037Y-11112D01*
X9325Y-11112D01*
X9375Y-11062D01*
X9375Y-10935D01*
X9375Y-11564D01*
X9375Y-11437D01*
X9325Y-11387D01*
X9037Y-11387D01*
X9037Y-11675D01*
X9087Y-11725D01*
X9135Y-11725D01*
X9214Y-11724D01*
X9288Y-11694D01*
X9344Y-11638D01*
X9375Y-11564D01*
X9375Y-11830D01*
X8762Y-11830D01*
X8762Y-11675D01*
X8762Y-11387D01*
X8762Y-11112D01*
X8762Y-10825D01*
X8712Y-10775D01*
X8664Y-10774D01*
X8585Y-10775D01*
X8511Y-10805D01*
X8455Y-10861D01*
X8424Y-10935D01*
X8425Y-11062D01*
X8475Y-11112D01*
X8762Y-11112D01*
X8762Y-11387D01*
X8475Y-11387D01*
X8425Y-11437D01*
X8424Y-11564D01*
X8455Y-11638D01*
X8511Y-11694D01*
X8585Y-11724D01*
X8664Y-11725D01*
X8712Y-11725D01*
X8762Y-11675D01*
X8762Y-11830D01*
X8419Y-11830D01*
X8419Y-9450D01*
X14100Y-9450D01*
X14122Y-9501D01*
X14247Y-9627D01*
X14411Y-9695D01*
X14484Y-9695D01*
X14500Y-9711D01*
X14515Y-9695D01*
X14588Y-9695D01*
X14751Y-9627D01*
X14877Y-9502D01*
X14899Y-9450D01*
X15080Y-9450D01*
X15080Y-11830D01*
X15080Y-11830D01*
G37*
G54D14*
X15080Y-11830D02*
X15004Y-11830D01*
X15004Y-9889D01*
X14977Y-9755D01*
X14908Y-9720D01*
X14708Y-9920D01*
X14908Y-10119D01*
X14977Y-10084D01*
X15004Y-9889D01*
X15004Y-11830D01*
X14945Y-11830D01*
X14945Y-10501D01*
X14877Y-10338D01*
X14752Y-10212D01*
X14588Y-10144D01*
X14515Y-10144D01*
X14500Y-10128D01*
X14484Y-10144D01*
X14411Y-10144D01*
X14291Y-10194D01*
X14291Y-9920D01*
X14091Y-9720D01*
X14022Y-9755D01*
X13995Y-9950D01*
X14022Y-10084D01*
X14091Y-10119D01*
X14291Y-9920D01*
X14291Y-10194D01*
X14248Y-10212D01*
X14122Y-10337D01*
X14054Y-10501D01*
X14054Y-10678D01*
X14122Y-10841D01*
X14247Y-10967D01*
X14411Y-11035D01*
X14588Y-11035D01*
X14751Y-10967D01*
X14877Y-10842D01*
X14945Y-10678D01*
X14945Y-10501D01*
X14945Y-11830D01*
X11325Y-11830D01*
X11325Y-10165D01*
X11260Y-10009D01*
X11141Y-9889D01*
X10984Y-9825D01*
X10815Y-9824D01*
X10659Y-9889D01*
X10539Y-10008D01*
X10475Y-10165D01*
X10474Y-10334D01*
X10539Y-10490D01*
X10658Y-10610D01*
X10815Y-10674D01*
X10984Y-10675D01*
X11140Y-10610D01*
X11260Y-10491D01*
X11324Y-10334D01*
X11325Y-10165D01*
X11325Y-11830D01*
X11325Y-11830D01*
X11325Y-11495D01*
X11325Y-10945D01*
X11302Y-10890D01*
X11260Y-10847D01*
X11204Y-10825D01*
X11145Y-10824D01*
X10595Y-10824D01*
X10540Y-10847D01*
X10497Y-10889D01*
X10475Y-10945D01*
X10474Y-11004D01*
X10474Y-11554D01*
X10497Y-11609D01*
X10539Y-11652D01*
X10595Y-11674D01*
X10654Y-11675D01*
X11204Y-11675D01*
X11259Y-11652D01*
X11302Y-11610D01*
X11324Y-11554D01*
X11325Y-11495D01*
X11325Y-11830D01*
X9375Y-11830D01*
X9375Y-11564D01*
X9375Y-10935D01*
X9344Y-10861D01*
X9325Y-10842D01*
X9325Y-10165D01*
X9260Y-10009D01*
X9141Y-9889D01*
X8984Y-9825D01*
X8815Y-9824D01*
X8659Y-9889D01*
X8539Y-10008D01*
X8475Y-10165D01*
X8474Y-10334D01*
X8539Y-10490D01*
X8658Y-10610D01*
X8815Y-10674D01*
X8984Y-10675D01*
X9140Y-10610D01*
X9260Y-10491D01*
X9324Y-10334D01*
X9325Y-10165D01*
X9325Y-10842D01*
X9288Y-10805D01*
X9214Y-10775D01*
X9135Y-10774D01*
X9087Y-10775D01*
X9037Y-10825D01*
X9037Y-11112D01*
X9325Y-11112D01*
X9375Y-11062D01*
X9375Y-10935D01*
X9375Y-11564D01*
X9375Y-11437D01*
X9325Y-11387D01*
X9037Y-11387D01*
X9037Y-11675D01*
X9087Y-11725D01*
X9135Y-11725D01*
X9214Y-11724D01*
X9288Y-11694D01*
X9344Y-11638D01*
X9375Y-11564D01*
X9375Y-11830D01*
X8762Y-11830D01*
X8762Y-11675D01*
X8762Y-11387D01*
X8762Y-11112D01*
X8762Y-10825D01*
X8712Y-10775D01*
X8664Y-10774D01*
X8585Y-10775D01*
X8511Y-10805D01*
X8455Y-10861D01*
X8424Y-10935D01*
X8425Y-11062D01*
X8475Y-11112D01*
X8762Y-11112D01*
X8762Y-11387D01*
X8475Y-11387D01*
X8425Y-11437D01*
X8424Y-11564D01*
X8455Y-11638D01*
X8511Y-11694D01*
X8585Y-11724D01*
X8664Y-11725D01*
X8712Y-11725D01*
X8762Y-11675D01*
X8762Y-11830D01*
X8419Y-11830D01*
X8419Y-9450D01*
X14100Y-9450D01*
X14122Y-9501D01*
X14247Y-9627D01*
X14411Y-9695D01*
X14484Y-9695D01*
X14500Y-9711D01*
X14515Y-9695D01*
X14588Y-9695D01*
X14751Y-9627D01*
X14877Y-9502D01*
X14899Y-9450D01*
X15080Y-9450D01*
X15080Y-11830D01*
M02*
